<svg class="marks" width="599" height="421" viewBox="0 0 599 421" version="1.1" xmlns="http://www.w3.org/2000/svg" xmlns:xlink="http://www.w3.org/1999/xlink"><rect width="599" height="421" fill="white"></rect><g fill="none" stroke-miterlimit="10" transform="translate(43,22)"><g class="mark-group role-frame root" role="graphics-object" aria-roledescription="group mark container"><g transform="translate(0,0)"><path class="background" aria-hidden="true" d="M0,0h480v0h-480Z"></path><g><g class="mark-group role-scope concat_0_group" role="graphics-object" aria-roledescription="group mark container"><g transform="translate(0,0)"><path class="background" aria-hidden="true" d="M0.5,0.5h480v120h-480Z" stroke="#ddd"></path><g><g class="mark-group role-axis" aria-hidden="true"><g transform="translate(0.5,120.5)"><path class="background" aria-hidden="true" d="M0,0h0v0h0Z" pointer-events="none"></path><g><g class="mark-rule role-axis-grid" pointer-events="none"><line transform="translate(18,-120)" x2="0" y2="120" stroke="#ddd" stroke-width="1" opacity="1"></line><line transform="translate(55,-120)" x2="0" y2="120" stroke="#ddd" stroke-width="1" opacity="1"></line><line transform="translate(92,-120)" x2="0" y2="120" stroke="#ddd" stroke-width="1" opacity="1"></line><line transform="translate(129,-120)" x2="0" y2="120" stroke="#ddd" stroke-width="1" opacity="1"></line><line transform="translate(166,-120)" x2="0" y2="120" stroke="#ddd" stroke-width="1" opacity="1"></line><line transform="translate(203,-120)" x2="0" y2="120" stroke="#ddd" stroke-width="1" opacity="1"></line><line transform="translate(240,-120)" x2="0" y2="120" stroke="#ddd" stroke-width="1" opacity="1"></line><line transform="translate(277,-120)" x2="0" y2="120" stroke="#ddd" stroke-width="1" opacity="1"></line><line transform="translate(314,-120)" x2="0" y2="120" stroke="#ddd" stroke-width="1" opacity="1"></line><line transform="translate(351,-120)" x2="0" y2="120" stroke="#ddd" stroke-width="1" opacity="1"></line><line transform="translate(388,-120)" x2="0" y2="120" stroke="#ddd" stroke-width="1" opacity="1"></line><line transform="translate(425,-120)" x2="0" y2="120" stroke="#ddd" stroke-width="1" opacity="1"></line><line transform="translate(462,-120)" x2="0" y2="120" stroke="#ddd" stroke-width="1" opacity="1"></line></g></g><path class="foreground" aria-hidden="true" d="" pointer-events="none" display="none"></path></g></g><g class="mark-group role-axis" aria-hidden="true"><g transform="translate(0.5,0.5)"><path class="background" aria-hidden="true" d="M0,0h0v0h0Z" pointer-events="none"></path><g><g class="mark-rule role-axis-grid" pointer-events="none"><line transform="translate(0,120)" x2="480" y2="0" stroke="#ddd" stroke-width="1" opacity="1"></line><line transform="translate(0,67)" x2="480" y2="0" stroke="#ddd" stroke-width="1" opacity="1"></line><line transform="translate(0,13)" x2="480" y2="0" stroke="#ddd" stroke-width="1" opacity="1"></line></g></g><path class="foreground" aria-hidden="true" d="" pointer-events="none" display="none"></path></g></g><g class="mark-group role-axis" role="graphics-symbol" aria-roledescription="axis" aria-label="X-axis titled 'Time' for a time scale with values from Tuesday, 01 January 2019, 12:00:00 AM to Sunday, 01 January 2045, 12:00:00 AM"><g transform="translate(0.5,120.5)"><path class="background" aria-hidden="true" d="M0,0h0v0h0Z" pointer-events="none"></path><g><g class="mark-rule role-axis-tick" pointer-events="none"><line transform="translate(18,0)" x2="0" y2="5" stroke="#888" stroke-width="1" opacity="1"></line><line transform="translate(55,0)" x2="0" y2="5" stroke="#888" stroke-width="1" opacity="1"></line><line transform="translate(92,0)" x2="0" y2="5" stroke="#888" stroke-width="1" opacity="1"></line><line transform="translate(129,0)" x2="0" y2="5" stroke="#888" stroke-width="1" opacity="1"></line><line transform="translate(166,0)" x2="0" y2="5" stroke="#888" stroke-width="1" opacity="1"></line><line transform="translate(203,0)" x2="0" y2="5" stroke="#888" stroke-width="1" opacity="1"></line><line transform="translate(240,0)" x2="0" y2="5" stroke="#888" stroke-width="1" opacity="1"></line><line transform="translate(277,0)" x2="0" y2="5" stroke="#888" stroke-width="1" opacity="1"></line><line transform="translate(314,0)" x2="0" y2="5" stroke="#888" stroke-width="1" opacity="1"></line><line transform="translate(351,0)" x2="0" y2="5" stroke="#888" stroke-width="1" opacity="1"></line><line transform="translate(388,0)" x2="0" y2="5" stroke="#888" stroke-width="1" opacity="1"></line><line transform="translate(425,0)" x2="0" y2="5" stroke="#888" stroke-width="1" opacity="1"></line><line transform="translate(462,0)" x2="0" y2="5" stroke="#888" stroke-width="1" opacity="1"></line></g><g class="mark-text role-axis-label" pointer-events="none"><text text-anchor="middle" transform="translate(18.44793092555544,15)" font-family="sans-serif" font-size="10px" fill="#000" opacity="1">2020</text><text text-anchor="middle" transform="translate(55.394335053174686,15)" font-family="sans-serif" font-size="10px" fill="#000" opacity="1">2022</text><text text-anchor="middle" transform="translate(92.29019690428555,15)" font-family="sans-serif" font-size="10px" fill="#000" opacity="1">2024</text><text text-anchor="middle" transform="translate(129.2366010319048,15)" font-family="sans-serif" font-size="10px" fill="#000" opacity="1">2026</text><text text-anchor="middle" transform="translate(166.13246288301568,15)" font-family="sans-serif" font-size="10px" fill="#000" opacity="1">2028</text><text text-anchor="middle" transform="translate(203.07886701063495,15)" font-family="sans-serif" font-size="10px" fill="#000" opacity="1">2030</text><text text-anchor="middle" transform="translate(239.97472886174583,15)" font-family="sans-serif" font-size="10px" fill="#000" opacity="1">2032</text><text text-anchor="middle" transform="translate(276.9211329893651,15)" font-family="sans-serif" font-size="10px" fill="#000" opacity="1">2034</text><text text-anchor="middle" transform="translate(313.81699484047596,15)" font-family="sans-serif" font-size="10px" fill="#000" opacity="1">2036</text><text text-anchor="middle" transform="translate(350.7633989680952,15)" font-family="sans-serif" font-size="10px" fill="#000" opacity="1">2038</text><text text-anchor="middle" transform="translate(387.65926081920605,15)" font-family="sans-serif" font-size="10px" fill="#000" opacity="1">2040</text><text text-anchor="middle" transform="translate(424.6056649468253,15)" font-family="sans-serif" font-size="10px" fill="#000" opacity="1">2042</text><text text-anchor="middle" transform="translate(461.50152679793615,15)" font-family="sans-serif" font-size="10px" fill="#000" opacity="1">2044</text></g><g class="mark-rule role-axis-domain" pointer-events="none"><line transform="translate(0,0)" x2="480" y2="0" stroke="#888" stroke-width="1" opacity="1"></line></g><g class="mark-text role-axis-title" pointer-events="none"><text text-anchor="middle" transform="translate(240,30)" font-family="sans-serif" font-size="11px" font-weight="bold" fill="#000" opacity="1">Time</text></g></g><path class="foreground" aria-hidden="true" d="" pointer-events="none" display="none"></path></g></g><g class="mark-group role-axis" role="graphics-symbol" aria-roledescription="axis" aria-label="Y-axis titled 'CO₂ emissions (GtCO₂e/year)' for a linear scale with values from 0 to 45"><g transform="translate(0.5,0.5)"><path class="background" aria-hidden="true" d="M0,0h0v0h0Z" pointer-events="none"></path><g><g class="mark-rule role-axis-tick" pointer-events="none"><line transform="translate(0,120)" x2="-5" y2="0" stroke="#888" stroke-width="1" opacity="1"></line><line transform="translate(0,67)" x2="-5" y2="0" stroke="#888" stroke-width="1" opacity="1"></line><line transform="translate(0,13)" x2="-5" y2="0" stroke="#888" stroke-width="1" opacity="1"></line></g><g class="mark-text role-axis-label" pointer-events="none"><text text-anchor="end" transform="translate(-7,123)" font-family="sans-serif" font-size="10px" fill="#000" opacity="1">0</text><text text-anchor="end" transform="translate(-7,69.66666666666667)" font-family="sans-serif" font-size="10px" fill="#000" opacity="1">20</text><text text-anchor="end" transform="translate(-7,16.33333333333334)" font-family="sans-serif" font-size="10px" fill="#000" opacity="1">40</text></g><g class="mark-rule role-axis-domain" pointer-events="none"><line transform="translate(0,120)" x2="0" y2="-120" stroke="#888" stroke-width="1" opacity="1"></line></g><g class="mark-text role-axis-title" pointer-events="none"><text text-anchor="middle" transform="translate(-22.123046875,60) rotate(-90) translate(0,-2)" font-family="sans-serif" font-size="11px" font-weight="bold" fill="#000" opacity="1">CO₂ emissions (GtCO₂e/year)</text></g></g><path class="foreground" aria-hidden="true" d="" pointer-events="none" display="none"></path></g></g><g class="mark-rect role-mark concat_0_layer_0_layer_0_marks" role="graphics-object" aria-roledescription="rect mark container"><path aria-label="t_0: Jan 01, 2021; t_l: May 10, 2036; zero_emissions: 0; init_ghg_emissions: 42.1" role="graphics-symbol" aria-roledescription="rect mark" d="M36.94640412761925,7.73333333333333h283.46149565418324v112.26666666666667h-283.46149565418324Z" fill="red" opacity="0.15"></path></g><g class="mark-text role-mark concat_0_layer_0_layer_1_marks" role="graphics-object" aria-roledescription="text mark container"><text aria-label="t_0: Jan 01, 2021; zero_emissions: 0; remaining_emissions_subtext: Remaining emissions budget:,647 GtCO₂e as of 2021/01" role="graphics-symbol" aria-roledescription="text mark" text-anchor="start" transform="translate(41.94640412761925,98)" font-family="sans-serif" font-size="11px" fill="red" opacity="0.6"><tspan>Remaining emissions budget:</tspan><tspan x="0" dy="13">647 GtCO₂e as of 2021/01</tspan></text></g><g class="mark-line role-mark concat_0_layer_1_marks" role="graphics-object" aria-roledescription="line mark container"><path aria-label="Time: Jan 01, 2019; CO₂ emissions (GtCO₂e/year): 42.1" role="graphics-symbol" aria-roledescription="line mark" d="M0,7.73333333333333C0.614931030851848,7.73333333333333,1.2298620617036957,7.73333333333333,1.8447930925555438,7.73333333333333C2.459724123407392,7.73333333333333,3.0746551542592395,7.73333333333333,3.6895861851110876,7.73333333333333C4.304517215962935,7.73333333333333,4.919448246814784,7.73333333333333,5.534379277666631,7.73333333333333C6.149310308518479,7.73333333333333,6.764241339370328,7.73333333333333,7.379172370222175,7.73333333333333C7.994103401074024,7.73333333333333,8.609034431925872,7.73333333333333,9.22396546277772,7.73333333333333C9.838896493629568,7.73333333333333,10.453827524481415,7.73333333333333,11.068758555333263,7.73333333333333C11.68368958618511,7.73333333333333,12.29862061703696,7.73333333333333,12.913551647888807,7.73333333333333C13.528482678740655,7.73333333333333,14.143413709592503,7.73333333333333,14.75834474044435,7.73333333333333C15.373275771296198,7.73333333333333,15.988206802148047,7.73333333333333,16.603137832999895,7.73333333333333C17.218068863851745,7.73333333333333,17.83299989470359,7.73333333333333,18.44793092555544,7.73333333333333C19.064546698957567,7.73333333333333,19.68116247235969,7.73333333333333,20.29777824576182,7.73333333333333C20.914394019163947,7.73333333333333,21.531009792566074,7.73333333333333,22.1476255659682,7.73333333333333C22.76424133937033,7.73333333333333,23.380857112772453,7.73333333333333,23.99747288617458,7.73333333333333C24.61408865957671,7.73333333333333,25.230704432978833,7.73333333333333,25.84732020638096,7.73333333333333C26.463935979783088,7.73333333333333,27.080551753185215,7.73333333333333,27.697167526587343,7.73333333333333C28.31378329998947,7.73333333333333,28.930399073391598,7.73333333333333,29.547014846793726,7.73333333333333C30.163630620195853,7.73333333333333,30.780246393597977,7.73333333333333,31.396862167000105,7.73333333333333C32.01347794040223,7.73333333333333,32.63009371380436,7.73333333333333,33.24670948720649,7.73333333333333C33.86332526060861,7.73333333333333,34.47994103401074,7.73333333333333,35.09655680741287,7.73333333333333C35.713172580815,7.73333333333333,36.32978835421712,7.73333333333333,36.94640412761925,7.73333333333333C37.561335158471095,7.73333333333333,38.176266189322945,8.219924257970023,38.79119722017479,8.4620372468795C39.40612825102664,8.70415023578898,40.021059281878486,8.945469792271703,40.635990312730335,9.186011266790196C41.250921343582185,9.426552741308688,41.86585237443403,9.66630593343148,42.48078340528588,9.905286093990453C43.095714436137726,10.144266254549429,43.710645466989575,10.382463249320185,44.325576497841425,10.619892230144043C44.940507528693274,10.8573212109679,45.55543855954512,11.09397210939999,46.170369590396966,11.329859978933596C46.785300621248815,11.565747848467202,47.40023165210066,11.800862686010028,48.01516268295251,12.035219447345682C48.63009371380436,12.269576208681336,49.245024744656206,12.503164955645902,49.859955775508055,12.736000546947523C50.474886806359905,12.968836138249143,51.089817837211754,13.200908700230848,51.704748868063604,13.43223299515541C52.319679898915446,13.66355729007997,52.934610929767295,13.894123508378641,53.54954196061914,14.123946316494894C54.16447299147099,14.353769124611148,54.77940402232284,14.582838776648488,55.394335053174686,14.81116984385293C56.009266084026535,15.039500911057372,56.624197114878385,15.267083710791383,57.239128145730234,15.493932719721544C57.85405917658208,15.720781728651705,58.468990207433926,15.94688732698884,59.083921238285775,16.172263897433897C59.698852269137625,16.397640467878954,60.313783299989474,16.622278453083183,60.92871433084132,16.846192142391885C61.54364536169317,17.070105831700587,62.158576392545015,17.293285729800132,62.773507423396865,17.515746033286103C63.38843845424871,17.738206336772073,64.00336948510055,17.95993761196332,64.6183005159524,18.180953963307704C65.23323154680425,18.401970314652093,65.8481625776561,18.622262369700902,66.46309360850795,18.84184414135243C67.0780246393598,19.061425913003955,67.69295567021165,19.280288089644458,68.3078867010635,19.498444593216867C68.92281773191534,19.716601096789276,69.5377487627672,19.934042676119947,70.15267979361904,20.15078316278688C70.76761082447089,20.367523649453812,71.38254185532273,20.583553852331175,71.99747288617458,20.798887513218464C72.61240391702643,21.014221174105757,73.22733494787828,21.228849161535187,73.84226597873013,21.44278512811063C74.45719700958198,21.65672109468607,75.07212804043382,21.86995596821053,75.68705907128567,22.082503312671122C76.30199010213752,22.295050657131714,76.91692113298937,22.506901459217552,77.53185216384122,22.71806919487418C78.14678319469307,22.929236930530806,78.7617142255449,23.139712644951206,79.37664525639676,23.349509726610886C79.9915762872486,23.559306808270566,80.60650731810044,23.76841636048664,81.22143834895229,23.976851684832255C81.83636937980414,24.185287009177873,82.45130041065599,24.39303926671701,83.06623144150784,24.60012167268459C83.68116247235969,24.80720407865217,84.29609350321154,25.013607851484203,84.91102453406339,25.219346120637724C85.52595556491524,25.425084389791245,86.14088659576709,25.63014843070191,86.75581762661893,25.83455128760572C87.37074865747078,26.03895414450953,87.98567968832263,26.242687149471795,88.60061071917448,26.445763262060566C89.21554175002633,26.648839374649338,89.83047278087818,26.85124998319204,90.44540381173003,27.05300796313835C91.06033484258187,27.254765943084653,91.67526587343372,27.456134417455274,92.29019690428555,27.656311141738406C92.90681267768768,27.85703629540314,93.52342845108981,28.05655105516113,94.14004422449194,28.25569838161543C94.75665999789408,28.45484570806973,95.37327577129619,28.653340405567178,95.98989154469832,28.85119510046421C96.60650731810045,29.049049795361242,97.22312309150257,29.246256097405404,97.8397388649047,29.442826550997616C98.45635463830683,29.639397004589828,99.07297041170895,29.835323273937345,99.68958618511108,30.030617822017476C100.30620195851321,30.22591237009761,100.92281773191534,30.420566915223837,101.53943350531748,30.614593839478417C102.15604927871959,30.808620763732993,102.77266505212172,31.002011839184426,103.38928082552384,31.194779367544943C104.00589659892597,31.387546895905462,104.6225123723281,31.579682702649688,105.23912814573023,31.771199009641524C105.85574391913237,31.96271531663336,106.47235969253448,32.15360400240688,107.08897546593661,32.343877209495965C107.70559123933874,32.53415041658505,108.32220701274086,32.723800076238824,108.93882278614299,32.91283825217603C109.55543855954512,33.101876428113236,110.17205433294724,33.29003915181187,110.78867010634937,33.47810626511919C111.40360113720122,33.66565953385463,112.01853216805307,33.85311310842138,112.63346319890492,34.03970521915579C113.24839422975677,34.2262973298902,113.86332526060862,34.4122779565703,114.47825629146047,34.59765892952563C115.09318732231232,34.78303990248096,115.70811835316415,34.96781336042137,116.323049384016,35.15199105688775C116.93798041486785,35.33616875335414,117.5529114457197,35.51974287808265,118.16784247657155,35.70272510832393C118.7827735074234,35.885707338565204,119.39770453827524,36.06808991475051,120.01263556912708,36.24988443833541C120.62756659997893,36.43167896192031,121.2424976308308,36.61287772370213,121.85742866168265,36.79349224983335C122.4723596925345,36.97410677596457,123.08729072338633,37.15412940728164,123.70222175423818,37.33357159512274C124.31715278509003,37.513013782963846,124.93208381594188,37.69186791787975,125.54701484679373,37.87014537687996C126.16194587764558,38.048422835880174,126.77687690849741,38.22611605890711,127.39180793934926,38.40323634912401C128.0067389702011,38.580356639340906,128.62167000105296,38.756896485761246,129.2366010319048,38.93286711818136C129.85153206275666,39.10883775060148,130.4664630936085,39.284231706787395,131.08139412446036,39.45906014364472C131.6963251553122,39.633888580502045,132.31125618616406,39.80814408423289,132.9261872170159,39.98183773932532C133.54111824786776,40.15553139441776,134.1560492787196,40.32865583519558,134.77098030957146,40.501222074199305C135.3859113404233,40.673788313203026,136.00084237127516,40.84578903256581,136.615773402127,41.01723517334764C137.23070443297885,41.188681314129475,137.8456354638307,41.35956560596255,138.46056649468255,41.5298989188903C139.0754975255344,41.700232231818035,139.69042855638625,41.87000734266337,140.3053595872381,42.039235050914094C140.92029061808992,42.20846275916482,141.53522164894179,42.37713588852827,142.15015267979362,42.54526516839463C142.76508371064546,42.713394448260985,143.38001474149732,42.8809727489177,143.99494577234915,43.04801073011224C144.609876803201,43.21504871130678,145.22480783405285,43.38153928960435,145.8397388649047,43.547493055561866C146.45466989575655,43.71344682151938,147.0696009266084,43.87885673767942,147.68453195746025,44.04373332585734C148.2994629883121,44.20860991403526,148.91439401916395,44.37294618245259,149.52932505001579,44.53675258462938C150.14425608086765,44.70055898680618,150.75918711171948,44.863828576346414,151.37411814257135,45.026571738918115C151.98904917342318,45.18931490148981,152.60398020427505,45.35152473578482,153.21891123512688,45.51321156005957C153.83384226597875,45.67489838433431,154.44877329683058,45.83605534207586,155.06370432768244,45.99669268456658C155.67863535853428,46.1573300270573,156.29356638938614,46.317440942288734,156.90849742023798,46.477035615003885C157.5234284510898,46.636630287719036,158.13835948194168,46.79570195012506,158.7532905127935,46.95426072085751C159.36822154364538,47.112819491589974,159.9831525744972,47.270858646784596,160.59808360534907,47.42838823939863C161.2130146362009,47.585917832012655,161.82794566705275,47.742931181825284,162.44287669790458,47.899438276541694C163.05780772875644,48.05594537125811,163.67273875960828,48.21193957401769,164.28766979046014,48.36743080769711C164.90260082131198,48.52292204137653,165.51753185216384,48.67811309013883,166.13246288301568,48.83238567861822C166.74907865641782,48.98708093172359,167.36569442981994,49.14084335609104,167.98231020322208,49.29432260624302C168.5989259766242,49.447801856395,169.21554175002635,49.60077813718901,169.83215752342846,49.7532611795301C170.44877329683058,49.90574422187119,171.0653890702327,50.05772755954321,171.68200484363481,50.20922086028954C172.29862061703696,50.36071416103587,172.91523639043908,50.5117110006115,173.53185216384122,50.66222098400808C174.14846793724334,50.81273096740466,174.76508371064548,50.96274771207587,175.3816994840476,51.11228076066902C175.99831525744972,51.26181380926218,176.61493103085186,51.410856820658964,177.23154680425398,51.559419275567C177.8481625776561,51.70798173047504,178.46477835105824,51.856057328935144,179.08139412446036,52.00365549011723C179.69800989786248,52.15125365129932,180.31462567126462,52.29836811613619,180.93124144466674,52.44500824265954C181.54785721806886,52.59164836918289,182.164472991471,52.73780793895207,182.78108876487312,52.88349624925735C183.39770453827524,53.02918455956262,184.01432031167738,53.17419817462838,184.6309360850795,53.3191381044912C185.24586711593136,53.4636820236167,185.8607981467832,53.60814911024574,186.47572917763506,53.75195228224747C187.0906602084869,53.8957554542492,187.70559123933873,54.03908736652675,188.32052227019057,54.18195713650158C188.93545330104243,54.32482690647642,189.55038433189426,54.46722847559411,190.16531536274613,54.609170902096466C190.78024639359796,54.75111332859882,191.39517742444983,54.892590593256465,192.01010845530166,55.03361169551572C192.62503948615353,55.17463279777497,193.23997051700536,55.31519175747625,193.85490154785722,55.45529751565197C194.46983257870906,55.59540327382769,195.08476360956092,55.73504988913448,195.69969464041276,55.874246244570045C196.31462567126462,56.01344260000561,196.92955670211646,56.15218279279084,197.54448773296832,56.29047564826537C198.15941876382016,56.4287685037399,198.77434979467202,56.56660815743856,199.38928082552385,56.70400337741723C200.0042118563757,56.8413985973959,200.61914288722755,56.978343557254654,201.2340739180794,57.1148469681374C201.84900494893125,57.251350379020145,202.4639359797831,57.387406452345125,203.07886701063495,57.5230238427137C203.6937980414868,57.658641233082264,204.30872907233865,57.79381418948537,204.92366010319049,57.928551310348816C205.53859113404232,58.063288431212264,206.15352216489418,58.197584002855834,206.76845319574602,58.33144656789439C207.38338422659785,58.465309132932944,207.99831525744972,58.5987330147728,208.61324628830155,58.731726700580154C209.22817731915342,58.86472038638751,209.84310835000525,58.99727823641449,210.45803938085712,59.12940868273853C211.07297041170895,59.26153912906257,211.68790144256081,59.39323656854244,212.30283247341265,59.524509378524414C212.91776350426449,59.655782188506386,213.53269453511635,59.78662480221825,214.14762556596818,59.91704554263035C214.76255659682005,60.047466283042446,215.37748762767188,60.17745961951556,215.99241865852375,60.307033820997006C216.60734968937558,60.43660802247845,217.22228072022745,60.56575759422746,217.83721175107928,60.69449075151904C218.45214278193114,60.82322390881062,219.06707381278298,60.95153519256941,219.68200484363484,61.07943276474647C220.29693587448668,61.20733033692353,220.91186690533854,61.33480877387744,221.52679793619038,61.4618761845814C222.14172896704224,61.58894359528536,222.75665999789408,61.715594591301894,223.37159102874594,61.841837228970235C223.98652205959777,61.96807986663857,224.60145309044964,62.09390879249666,225.21638412130147,62.21933201059142C225.8313151521533,62.34475522868618,226.44624618300517,62.46976742030398,227.061177213857,62.59437653753879C227.67610824470884,62.718985654773604,228.2910392755607,62.84318641343467,228.90597030641254,62.9669867140003C229.52090133726438,63.090787014565926,230.13583236811624,63.21418160714413,230.75076339896808,63.33717834093254C231.36569442981994,63.46017507472095,231.98062546067177,63.58276873390375,232.59555649152364,63.70496711673076C233.21048752237547,63.827165499557765,233.82541855322734,63.94896342406813,234.44034958407917,64.07036863789457C235.05528061493104,64.19177385172102,235.67021164578287,64.31278120653793,236.28514267663473,64.43339839968942C236.90007370748657,64.55401559284091,237.51500473833843,64.67423750941828,238.12993576919027,64.79407179680351C238.74486680004213,64.91390608418874,239.35979783089397,65.03350902447629,239.97472886174583,65.15240412400078C240.59134463514795,65.27162496352398,241.20796040855006,65.39012688877517,241.82457618195218,65.50841057676945C242.4411919553543,65.62669426476373,243.05780772875644,65.74459032335177,243.67442350215856,65.86210625196644C244.2910392755607,65.9796221805811,244.90765504896282,66.09675299582631,245.52427082236497,66.21350614845741C246.14088659576709,66.33025930108852,246.7575023691692,66.4466298400558,247.37411814257132,66.56262516775304C247.99073391597346,66.67862049545028,248.6073496893756,66.79423569296418,249.22396546277776,66.9094781146408C249.84058123617987,67.02472053631742,250.457197009582,67.13958529517133,251.0738127829841,67.25407969781276C251.69042855638622,67.36857410045418,252.30704432978834,67.4826932916183,252.92366010319046,67.59644453048936C253.5402758765926,67.71019576936044,254.15689164999475,67.82357423218832,254.7735074233969,67.93658713103918C255.390123196799,68.04960002989002,256.0067389702011,68.16224257232383,256.6233547436032,68.27452192359443C257.23997051700536,68.38680127486504,257.85658629040745,68.4985606506919,258.4732020638096,68.61026323866278C259.08813309466143,68.72166062830587,259.7030641255133,68.83299880453067,260.31799515636516,68.94382531373499C260.932926187217,69.0546518229393,261.5478572180689,69.16511514077982,262.1627882489207,69.27522229388867C262.77771927977255,69.38532944699753,263.39265031062445,69.49507576615619,264.0075813414763,69.60446823238813C264.6225123723281,69.71386069862007,265.23744340317995,69.82289467301386,265.8523744340318,69.93157709128033C266.4673054648836,70.0402595095468,267.0822364957355,70.14858576288492,267.69716752658735,70.25656274198697C268.3120985574392,70.36453972108902,268.9270295882911,70.47216284706892,269.5419606191429,70.57943896589265C270.15689164999475,70.68671508471638,270.7718226808466,70.79363964721861,271.3867537116984,70.90021945492934C272.00168474255025,71.00679926264007,272.61661577340215,71.11302979592185,273.231546804254,71.21891781215706C273.8464778351058,71.32480582839227,274.4614088659577,71.43034683727969,275.07633989680954,71.53554755234065C275.6912709276614,71.6407482674016,276.30620195851327,71.74560422748065,276.9211329893651,71.85012210252285C277.53606402021694,71.95463997756504,278.1509950510688,72.0588153353715,278.7659260819206,72.1626548025938C279.38085711277245,72.2664942698161,279.99578814362434,72.36999344302401,280.6107191744762,72.47315890585664C281.225650205328,72.57632436868926,281.8405812361799,72.6791517462983,282.45551226703174,72.78164757958957C283.07044329788357,72.88414341288083,283.6853743287354,72.98630335540241,284.30030535958724,73.08813390560422C284.9152363904391,73.18996445580603,285.5301674212909,73.29146129544824,286.14509845214275,73.39263088080043C286.7600294829946,73.4938004661526,287.3749605138465,73.59463850700389,287.9898915446983,73.6951514177173C288.60482257555014,73.7956643284307,289.21975360640204,73.89584784664241,289.8346846372539,73.99570834508089C290.4496156681057,74.09556884351935,291.06454669895754,74.19510208748703,291.6794777298094,74.2943144083481C292.2944087606612,74.39352672920917,292.9093397915131,74.49241391975279,293.52427082236494,74.59098227024731C294.1392018532168,74.68955062074183,294.75413288406867,74.7877959512847,295.3690639149205,74.88572451131523C295.98399494577234,74.98365307134576,296.5989259766242,75.08126070809242,297.213857007476,75.17855363043044C297.82878803832784,75.27584655276847,298.44371906917974,75.37282063488131,299.05865010003157,75.46948204534343C299.6735811308834,75.56614345580554,300.2885121617353,75.66248809558034,300.90344319258713,75.75852209320314C301.51837422343897,75.85455609082594,302.13330525429086,75.9502753738663,302.7482362851427,76.04568603108024C303.36316731599453,76.14109668829417,303.97809834684637,76.23619467368468,304.5930293776982,76.33098603648673C305.20796040855004,76.42577739928879,305.82289143940193,76.52025811976726,306.43782247025376,76.61443420789254C307.0527535011056,76.70861029601782,307.6676845319575,76.80247775814621,308.2826155628093,76.8960425652384C308.89754659366116,76.9896073723306,309.51247762451305,77.08286555666497,310.1274086553649,77.17582305044571C310.7423396862167,77.26878054422646,311.35727071706856,77.36143340548577,311.9722017479204,77.45378752792287C312.58713277877223,77.54614165035997,313.2020638096241,77.63831747776437,313.81699484047596,77.72994778506832C314.43361061387805,77.82182913431008,315.0502263872802,77.91315642929789,315.6668421606823,78.00431553277065C316.2834579340844,78.09547463624342,316.90007370748657,78.18633500072897,317.5166894808887,78.27690240590492C318.13330525429086,78.36746981108085,318.74992102769295,78.45774041631964,319.3665368010951,78.54771996382628C319.9831525743022,78.63769951130448,320.5997683475094,78.72738418538032,321.2163841207165,78.81677969085999C321.83299989411864,78.90617519636793,322.44961566752073,78.99527774237598,323.0662314409229,79.08409299678857C323.682847214325,79.17290825120116,324.2994629877271,79.26143244769261,324.91607876112926,79.34967121733554C325.53269453453134,79.43790998697847,326.1493103079335,79.5258595879079,326.7659260813356,79.61352561464614C327.3825418547377,79.70119164138437,327.99915762813987,79.78857037635424,328.615773401542,79.87566737776496C329.23238917494416,79.96276437917567,329.84900494834625,80.0495759535802,330.4656207217484,80.13610762311039C331.08223649515054,80.22263929264058,331.6988522685526,80.30877022648114,332.3154680419548,80.39485739494606C332.9303990728066,80.48070935256817,333.54533010365844,80.56651567547752,334.1602611345103,80.65192766584909C334.7751921653621,80.73733965622067,335.390123196214,80.82247174156328,336.00505422706584,80.90732933717551C336.6199852579177,80.99218693278775,337.23491628876957,81.07676644018714,337.8498473196214,81.1610732395225C338.46477835047324,81.24538003885785,339.0797093813251,81.32941055500385,339.6946404121769,81.41317013318763C340.30957144302874,81.49692971137142,340.92450247388064,81.58041479967324,341.5394335047325,81.66363070862525C342.1543645355843,81.74684661757726,342.7692955664362,81.82978981831462,343.38422659728803,81.91246558689974C343.99915762813987,81.99514135548486,344.6140886589917,82.07754618595813,345.22901968984354,82.15968532013596C345.8439507206954,82.2418244543138,346.45888175154727,82.32369440899319,347.0738127823991,82.40530039196676C347.68874381325094,82.48690637494033,348.30367484410283,82.56824492561395,348.91860587495466,82.6493212179774C349.5335369058065,82.73039751034085,350.1484679366584,82.81120810626213,350.7633989675102,82.89175814614748C351.37832999836206,82.97230818603282,351.9932610292139,83.05259425406656,352.60819206006573,83.13262145728947C353.22312309091757,83.21264866051239,353.83805412176946,83.29241360528029,354.4529851526213,83.37192136548498C355.06791618347313,83.45142912568967,355.682847214325,83.53067632971454,356.29777824517686,83.60966801851764C356.9127092760287,83.68865970732074,357.5276403068806,83.76739253117002,358.1425713377324,83.84587149830355C358.75750236858426,83.92435046543709,359.3724333994361,84.00257224786537,359.9873644302879,84.08054182131883C360.60229546113976,84.15851139477229,361.21722649199165,84.23622545286285,361.8321575228435,84.31368893902433C362.4470885536953,84.39115242518581,363.0620195845472,84.46836205449131,363.67695061539905,84.54532273828767C364.2918816462509,84.62228342208402,364.9068126771027,84.69899189676624,365.52174370795456,84.77545304180245C366.1366747388064,84.85191418683866,366.7516057696583,84.92812475980737,367.3665368005101,85.0040896085049C367.98146783136195,85.08005445720242,368.59639886221385,85.1557703602533,369.2113298930657,85.23124213398759C369.8262609239175,85.30671390772189,370.44119195476935,85.38193835167354,371.0561229856212,85.45692025091064C371.671054016473,85.53190215014774,372.28598504732486,85.60663832497795,372.9009160781767,85.68113352941025C373.5158471090285,85.75562873384254,374.1307781398804,85.82987980882342,374.74570917073225,85.90389147750443C375.3606402015841,85.97790314618544,375.975571232436,86.05167227001795,376.5905022632878,86.12520354149632C377.20543329413965,86.19873481297469,377.8203643249915,86.27202511392207,378.4352953558433,86.34507910637464C379.05022638669516,86.41813309882721,379.66515741754705,86.4909476848477,380.2800884483989,86.56352749621178C380.8950194792507,86.63610730757586,381.5099505101026,86.70844926645444,382.12488154095445,86.78055797455914C382.7398125718063,86.85266668266385,383.3547436026582,86.92453908214323,383.96967463351,86.99617974483999C384.58460566436185,87.06782040753676,385.1995366952137,87.13922629544749,385.8144677260655,87.21040195073977C386.42939875691735,87.28157760603204,387.04432978776924,87.35261585256063,387.6592608186211,87.4232336765937C388.2758765920232,87.49404497411726,388.8924923654253,87.56442927202724,389.50910813882746,87.63468394777222C390.1257239122296,87.7049386235172,390.7423396856317,87.77496306651659,391.35895545903384,87.84476173106358C391.975571232436,87.91456039561058,392.59218700583807,87.98413032181374,393.2088027792402,88.05347593505417C393.82541855264236,88.1228215482946,394.44203432604445,88.19193990789302,395.0586500994466,88.26083541050616C395.67526587284874,88.3297309131193,396.29188164625083,88.39840063715535,396.908497419653,88.46684895073304C397.5251131930551,88.53529726431073,398.1417289664572,88.6035212648018,398.75834473985935,88.6715252919723C399.3749605132615,88.7395293191428,399.99157628666364,88.80731048920492,400.6081920600658,88.87487311375602C401.2248078334679,88.94243573830713,401.84142360687,89.00977695227759,402.4580393802721,89.07690103927892C403.07465515367426,89.14402512628025,403.69127092707635,89.21092923983953,404.3078867004785,89.27761763576403C404.92450247388064,89.34430603168853,405.5411182472828,89.4106855878498,406.1577340206849,89.47703141482596C406.77266505153676,89.54319596905081,407.3875960823886,89.6093253534262,408.00252711324043,89.6751508328319C408.61745814409227,89.7409763122376,409.23238917494416,89.80658607388939,409.847320205796,89.87198429126016C410.46225123664783,89.93738250863093,411.0771822674997,90.0025664084352,411.69211329835156,90.06754013705653C412.3070443292034,90.13251386567785,412.9219753600553,90.19727466783168,413.5369063909071,90.26182666298811C414.15183742175896,90.32637865814455,414.7667684526108,90.39071910890311,415.3816994834626,90.45485210799512C415.99663051431446,90.51898510708713,416.6115615451663,90.58290793488015,417.22649257601813,90.64662465754022C417.84142360686997,90.71034138020029,418.45635463772186,90.77384929574761,419.0712856685737,90.83715244395553C419.68621669942553,90.90045559216344,420.30114773027736,90.96355128859024,420.9160787611292,91.0264435467877C421.53100979198103,91.08933580498518,422.1459408228329,91.1520219579359,422.76087185368476,91.21450599314036C423.3758028845366,91.27699002834483,423.9907339153885,91.33926929609676,424.6056649462403,91.40134775801451C425.22059597709216,91.46342621993226,425.83552700794405,91.52530124350832,426.4504580387959,91.58697676464686C427.0653890696477,91.64865228578539,427.68032010049956,91.71012568906606,428.2952511313514,91.7714008848457C428.9101821622032,91.83267608062535,429.5251131930551,91.89375047045989,430.14004422390695,91.95462793932472C430.7549752547588,92.01550540818955,431.3699062856107,92.07618337450667,431.9848373164625,92.13666569803472C432.59976834731435,92.19714802156277,433.2146993781662,92.25743213748034,433.829630409018,92.31752188049305C434.44456143986986,92.37761162350576,435.05949247072175,92.43750444544,435.6744235015736,92.49720415611098C436.2893545324254,92.55690386678197,436.9042855632773,92.61640793455584,437.51921659412915,92.67572014451895C438.134147624981,92.73503235448206,438.7490786558329,92.79415019143293,439.3640096866847,92.85307741588962C439.97894071753655,92.91200464034628,440.5938717483884,92.97073875343305,441.2088027792402,93.029283491259C441.82373381009205,93.08782822908493,442.43866484094394,93.14618110899416,443.0535958717958,93.20434584284529C443.6685269026476,93.26251057669641,444.2834579334995,93.32048469794803,444.89838896435134,93.37827189436578C445.5133199952032,93.43605909078352,446.128251026055,93.49365691183587,446.74318205690685,93.55106902135174C447.3581130877587,93.60848113086762,447.9730441186106,93.66570509422148,448.5879751494624,93.72274455146102C449.20290618031424,93.77978400870056,449.81783721116614,93.83663654100297,450.43276824201797,93.89330576478896C451.0476992728698,93.94997498857495,451.6626303037217,94.00645850072192,452.27756133457353,94.06275989417699C452.89249236542537,94.11906128763206,453.5074233962772,94.17517817487091,454.12235442712904,94.23111412551943C454.7372854579809,94.28705007616794,455.35221648883277,94.34280271819881,455.9671475196846,94.39837559806811C456.58207855053644,94.45394847793742,457.19700958138833,94.50933923901424,457.81194061224016,94.56455140473525C458.426871643092,94.61976357045626,459.04180267394383,94.67479479948703,459.65673370479567,94.72964859239417C460.2716647356475,94.78450238530131,460.88659576649934,94.83925027975434,461.5015267973512,94.89367416217812C462.1181425707533,94.94824715112908,462.73475834415547,95.00249105918463,463.3513741175576,95.05663506977714C463.96798989095976,95.11077908036965,464.58460566436185,95.16474565474053,465.201221437764,95.21853822573314C465.8178372111661,95.27233079672575,466.4344529845682,95.32594708320521,467.0510687579703,95.37939049573284C467.66768453137246,95.43283390826046,468.2843003047746,95.4861021805078,468.90091607817675,95.53919870089888C469.5175318515789,95.59229522128996,470.134147624981,95.64521773820665,470.7507633983831,95.69796961807928C471.3673791717852,95.7507214979519,471.98399494518736,95.80330050377724,472.60061071858945,95.85570998013462C473.2172264919916,95.908119456492,473.83384226539374,95.96035718089824,474.4504580387959,96.0124264762236C475.06707381219803,96.06449577154895,475.6836895856001,96.11639442973595,476.30030535900227,96.16812575208672C476.91692113240435,96.21985707443748,477.5335369058065,96.2714188672267,478.1501526792086,96.3228144103282C478.76676845261073,96.37420995342971,479.3833842260129,96.43833126725981,479.999999999415,96.47649901069579C479.99999999961,96.47649901070785,479.999999999805,96.47649901071993,480,96.476499010732" stroke="#4c78a8" stroke-width="2"></path></g></g><path class="foreground" aria-hidden="true" d="" display="none"></path></g></g><g class="mark-group role-scope concat_1_group" role="graphics-object" aria-roledescription="group mark container"><g transform="translate(0,191)"><path class="background" aria-hidden="true" d="M0.5,0.5h480v180h-480Z" stroke="#ddd"></path><g><g class="mark-group role-axis" aria-hidden="true"><g transform="translate(0.5,0.5)"><path class="background" aria-hidden="true" d="M0,0h0v0h0Z" pointer-events="none"></path><g><g class="mark-rule role-axis-grid" pointer-events="none"><line transform="translate(18,180)" x2="0" y2="-180" stroke="#ddd" stroke-width="1" opacity="1"></line><line transform="translate(55,180)" x2="0" y2="-180" stroke="#ddd" stroke-width="1" opacity="1"></line><line transform="translate(92,180)" x2="0" y2="-180" stroke="#ddd" stroke-width="1" opacity="1"></line><line transform="translate(129,180)" x2="0" y2="-180" stroke="#ddd" stroke-width="1" opacity="1"></line><line transform="translate(166,180)" x2="0" y2="-180" stroke="#ddd" stroke-width="1" opacity="1"></line><line transform="translate(203,180)" x2="0" y2="-180" stroke="#ddd" stroke-width="1" opacity="1"></line><line transform="translate(240,180)" x2="0" y2="-180" stroke="#ddd" stroke-width="1" opacity="1"></line><line transform="translate(277,180)" x2="0" y2="-180" stroke="#ddd" stroke-width="1" opacity="1"></line><line transform="translate(314,180)" x2="0" y2="-180" stroke="#ddd" stroke-width="1" opacity="1"></line><line transform="translate(351,180)" x2="0" y2="-180" stroke="#ddd" stroke-width="1" opacity="1"></line><line transform="translate(388,180)" x2="0" y2="-180" stroke="#ddd" stroke-width="1" opacity="1"></line><line transform="translate(425,180)" x2="0" y2="-180" stroke="#ddd" stroke-width="1" opacity="1"></line><line transform="translate(462,180)" x2="0" y2="-180" stroke="#ddd" stroke-width="1" opacity="1"></line></g></g><path class="foreground" aria-hidden="true" d="" pointer-events="none" display="none"></path></g></g><g class="mark-group role-axis" aria-hidden="true"><g transform="translate(0.5,0.5)"><path class="background" aria-hidden="true" d="M0,0h0v0h0Z" pointer-events="none"></path><g><g class="mark-rule role-axis-grid" pointer-events="none"><line transform="translate(0,180)" x2="480" y2="0" stroke="#ddd" stroke-width="1" opacity="1"></line><line transform="translate(0,154)" x2="480" y2="0" stroke="#ddd" stroke-width="1" opacity="1"></line><line transform="translate(0,129)" x2="480" y2="0" stroke="#ddd" stroke-width="1" opacity="1"></line><line transform="translate(0,103)" x2="480" y2="0" stroke="#ddd" stroke-width="1" opacity="1"></line><line transform="translate(0,77)" x2="480" y2="0" stroke="#ddd" stroke-width="1" opacity="1"></line><line transform="translate(0,51)" x2="480" y2="0" stroke="#ddd" stroke-width="1" opacity="1"></line><line transform="translate(0,26)" x2="480" y2="0" stroke="#ddd" stroke-width="1" opacity="1"></line><line transform="translate(0,0)" x2="480" y2="0" stroke="#ddd" stroke-width="1" opacity="1"></line></g></g><path class="foreground" aria-hidden="true" d="" pointer-events="none" display="none"></path></g></g><g class="mark-group role-axis" role="graphics-symbol" aria-roledescription="axis" aria-label="X-axis for a time scale with values from Tuesday, 01 January 2019, 12:00:00 AM to Sunday, 01 January 2045, 12:00:00 AM"><g transform="translate(0.5,0.5)"><path class="background" aria-hidden="true" d="M0,0h0v0h0Z" pointer-events="none"></path><g><g class="mark-rule role-axis-tick" pointer-events="none"><line transform="translate(18,0)" x2="0" y2="-5" stroke="#888" stroke-width="1" opacity="1"></line><line transform="translate(55,0)" x2="0" y2="-5" stroke="#888" stroke-width="1" opacity="1"></line><line transform="translate(92,0)" x2="0" y2="-5" stroke="#888" stroke-width="1" opacity="1"></line><line transform="translate(129,0)" x2="0" y2="-5" stroke="#888" stroke-width="1" opacity="1"></line><line transform="translate(166,0)" x2="0" y2="-5" stroke="#888" stroke-width="1" opacity="1"></line><line transform="translate(203,0)" x2="0" y2="-5" stroke="#888" stroke-width="1" opacity="1"></line><line transform="translate(240,0)" x2="0" y2="-5" stroke="#888" stroke-width="1" opacity="1"></line><line transform="translate(277,0)" x2="0" y2="-5" stroke="#888" stroke-width="1" opacity="1"></line><line transform="translate(314,0)" x2="0" y2="-5" stroke="#888" stroke-width="1" opacity="1"></line><line transform="translate(351,0)" x2="0" y2="-5" stroke="#888" stroke-width="1" opacity="1"></line><line transform="translate(388,0)" x2="0" y2="-5" stroke="#888" stroke-width="1" opacity="1"></line><line transform="translate(425,0)" x2="0" y2="-5" stroke="#888" stroke-width="1" opacity="1"></line><line transform="translate(462,0)" x2="0" y2="-5" stroke="#888" stroke-width="1" opacity="1"></line></g><g class="mark-text role-axis-label" pointer-events="none"><text text-anchor="middle" transform="translate(18.44793092555544,-9)" font-family="sans-serif" font-size="10px" fill="#000" opacity="1">2020</text><text text-anchor="middle" transform="translate(55.394335053174686,-9)" font-family="sans-serif" font-size="10px" fill="#000" opacity="1">2022</text><text text-anchor="middle" transform="translate(92.29019690428555,-9)" font-family="sans-serif" font-size="10px" fill="#000" opacity="1">2024</text><text text-anchor="middle" transform="translate(129.2366010319048,-9)" font-family="sans-serif" font-size="10px" fill="#000" opacity="1">2026</text><text text-anchor="middle" transform="translate(166.13246288301568,-9)" font-family="sans-serif" font-size="10px" fill="#000" opacity="1">2028</text><text text-anchor="middle" transform="translate(203.07886701063495,-9)" font-family="sans-serif" font-size="10px" fill="#000" opacity="1">2030</text><text text-anchor="middle" transform="translate(239.97472886174583,-9)" font-family="sans-serif" font-size="10px" fill="#000" opacity="1">2032</text><text text-anchor="middle" transform="translate(276.9211329893651,-9)" font-family="sans-serif" font-size="10px" fill="#000" opacity="1">2034</text><text text-anchor="middle" transform="translate(313.81699484047596,-9)" font-family="sans-serif" font-size="10px" fill="#000" opacity="1">2036</text><text text-anchor="middle" transform="translate(350.7633989680952,-9)" font-family="sans-serif" font-size="10px" fill="#000" opacity="1">2038</text><text text-anchor="middle" transform="translate(387.65926081920605,-9)" font-family="sans-serif" font-size="10px" fill="#000" opacity="1">2040</text><text text-anchor="middle" transform="translate(424.6056649468253,-9)" font-family="sans-serif" font-size="10px" fill="#000" opacity="1">2042</text><text text-anchor="middle" transform="translate(461.50152679793615,-9)" font-family="sans-serif" font-size="10px" fill="#000" opacity="1">2044</text></g><g class="mark-rule role-axis-domain" pointer-events="none"><line transform="translate(0,0)" x2="480" y2="0" stroke="#888" stroke-width="1" opacity="1"></line></g></g><path class="foreground" aria-hidden="true" d="" pointer-events="none" display="none"></path></g></g><g class="mark-group role-axis" role="graphics-symbol" aria-roledescription="axis" aria-label="Y-axis titled 'Reduction (cB)' for a linear scale with values from -70 to 0"><g transform="translate(0.5,0.5)"><path class="background" aria-hidden="true" d="M0,0h0v0h0Z" pointer-events="none"></path><g><g class="mark-rule role-axis-tick" pointer-events="none"><line transform="translate(0,180)" x2="-5" y2="0" stroke="#888" stroke-width="1" opacity="1"></line><line transform="translate(0,154)" x2="-5" y2="0" stroke="#888" stroke-width="1" opacity="1"></line><line transform="translate(0,129)" x2="-5" y2="0" stroke="#888" stroke-width="1" opacity="1"></line><line transform="translate(0,103)" x2="-5" y2="0" stroke="#888" stroke-width="1" opacity="1"></line><line transform="translate(0,77)" x2="-5" y2="0" stroke="#888" stroke-width="1" opacity="1"></line><line transform="translate(0,51)" x2="-5" y2="0" stroke="#888" stroke-width="1" opacity="1"></line><line transform="translate(0,26)" x2="-5" y2="0" stroke="#888" stroke-width="1" opacity="1"></line><line transform="translate(0,0)" x2="-5" y2="0" stroke="#888" stroke-width="1" opacity="1"></line></g><g class="mark-text role-axis-label" pointer-events="none"><text text-anchor="end" transform="translate(-7,183)" font-family="sans-serif" font-size="10px" fill="#000" opacity="1">-70</text><text text-anchor="end" transform="translate(-7,157.2857142857143)" font-family="sans-serif" font-size="10px" fill="#000" opacity="1">-60</text><text text-anchor="end" transform="translate(-7,131.57142857142858)" font-family="sans-serif" font-size="10px" fill="#000" opacity="1">-50</text><text text-anchor="end" transform="translate(-7,105.85714285714285)" font-family="sans-serif" font-size="10px" fill="#000" opacity="1">-40</text><text text-anchor="end" transform="translate(-7,80.14285714285715)" font-family="sans-serif" font-size="10px" fill="#000" opacity="1">-30</text><text text-anchor="end" transform="translate(-7,54.42857142857142)" font-family="sans-serif" font-size="10px" fill="#000" opacity="1">-20</text><text text-anchor="end" transform="translate(-7,28.714285714285722)" font-family="sans-serif" font-size="10px" fill="#000" opacity="1">-10</text><text text-anchor="end" transform="translate(-7,3)" font-family="sans-serif" font-size="10px" fill="#000" opacity="1">0</text></g><g class="mark-rule role-axis-domain" pointer-events="none"><line transform="translate(0,180)" x2="0" y2="-180" stroke="#888" stroke-width="1" opacity="1"></line></g><g class="mark-text role-axis-title" pointer-events="none"><text text-anchor="middle" transform="translate(-25.453125,90) rotate(-90) translate(0,-2)" font-family="sans-serif" font-size="11px" font-weight="bold" fill="#000" opacity="1">Reduction (cB)</text></g></g><path class="foreground" aria-hidden="true" d="" pointer-events="none" display="none"></path></g></g><g class="mark-line role-mark concat_1_layer_0_marks" role="graphics-object" aria-roledescription="line mark container"><path aria-label="t: Jan 01, 2019; Reduction (cB): 0" role="graphics-symbol" aria-roledescription="line mark" d="M0,0L36.94640412761925,0L320.4078997818025,111.67572391797903L480,174.5354237381683" stroke="#4c78a8" stroke-width="2"></path></g><g class="mark-text role-mark concat_1_layer_1_layer_0_marks" role="graphics-object" aria-roledescription="text mark container"><text aria-label="t: Jan 01, 2045; Reduction (cB): -67.8748870093; cB_reduction_speed_description: -2.83 cB/year" role="graphics-symbol" aria-roledescription="text mark" text-anchor="start" transform="translate(484,177.5354237381683)" font-family="sans-serif" font-size="11px" fill="black">-2.83 cB/year</text></g></g><path class="foreground" aria-hidden="true" d="" display="none"></path></g></g><g class="mark-group role-title"><g transform="translate(256.4833984375,381)"><path class="background" aria-hidden="true" d="M0,0h0v0h0Z" pointer-events="none"></path><g><g class="mark-text role-title-text" role="graphics-symbol" aria-roledescription="title" aria-label="Title text 'Exponential-decay emissions reduction pathway'" pointer-events="none"><text text-anchor="middle" transform="translate(0,10)" font-family="sans-serif" font-size="13px" font-weight="bold" fill="#000" opacity="1">Exponential-decay emissions reduction pathway</text></g></g><path class="foreground" aria-hidden="true" d="" pointer-events="none" display="none"></path></g></g></g><path class="foreground" aria-hidden="true" d="" display="none"></path></g></g></g></svg>