<svg class="marks" width="509" height="451" viewBox="0 0 509 451" version="1.1" xmlns="http://www.w3.org/2000/svg" xmlns:xlink="http://www.w3.org/1999/xlink"><rect width="509" height="451" fill="white"></rect><g fill="none" stroke-miterlimit="10" transform="translate(58,37)"><g class="mark-group role-frame root" role="graphics-object" aria-roledescription="group mark container"><g transform="translate(0,0)"><path class="background" aria-hidden="true" d="M0,0h360v0h-360Z"></path><g><g class="mark-group role-scope concat_0_group" role="graphics-object" aria-roledescription="group mark container"><g transform="translate(0,0)"><path class="background" aria-hidden="true" d="M0.5,0.5h360v120h-360Z" stroke="#ddd"></path><g><g class="mark-group role-axis" aria-hidden="true"><g transform="translate(0.5,120.5)"><path class="background" aria-hidden="true" d="M0,0h0v0h0Z" pointer-events="none"></path><g><g class="mark-rule role-axis-grid" pointer-events="none"><line transform="translate(14,-120)" x2="0" y2="120" stroke="#ddd" stroke-width="1" opacity="1"></line><line transform="translate(42,-120)" x2="0" y2="120" stroke="#ddd" stroke-width="1" opacity="1"></line><line transform="translate(69,-120)" x2="0" y2="120" stroke="#ddd" stroke-width="1" opacity="1"></line><line transform="translate(97,-120)" x2="0" y2="120" stroke="#ddd" stroke-width="1" opacity="1"></line><line transform="translate(125,-120)" x2="0" y2="120" stroke="#ddd" stroke-width="1" opacity="1"></line><line transform="translate(152,-120)" x2="0" y2="120" stroke="#ddd" stroke-width="1" opacity="1"></line><line transform="translate(180,-120)" x2="0" y2="120" stroke="#ddd" stroke-width="1" opacity="1"></line><line transform="translate(208,-120)" x2="0" y2="120" stroke="#ddd" stroke-width="1" opacity="1"></line><line transform="translate(235,-120)" x2="0" y2="120" stroke="#ddd" stroke-width="1" opacity="1"></line><line transform="translate(263,-120)" x2="0" y2="120" stroke="#ddd" stroke-width="1" opacity="1"></line><line transform="translate(291,-120)" x2="0" y2="120" stroke="#ddd" stroke-width="1" opacity="1"></line><line transform="translate(318,-120)" x2="0" y2="120" stroke="#ddd" stroke-width="1" opacity="1"></line><line transform="translate(346,-120)" x2="0" y2="120" stroke="#ddd" stroke-width="1" opacity="1"></line></g></g><path class="foreground" aria-hidden="true" d="" pointer-events="none" display="none"></path></g></g><g class="mark-group role-axis" aria-hidden="true"><g transform="translate(0.5,0.5)"><path class="background" aria-hidden="true" d="M0,0h0v0h0Z" pointer-events="none"></path><g><g class="mark-rule role-axis-grid" pointer-events="none"><line transform="translate(0,120)" x2="360" y2="0" stroke="#ddd" stroke-width="1" opacity="1"></line><line transform="translate(0,67)" x2="360" y2="0" stroke="#ddd" stroke-width="1" opacity="1"></line><line transform="translate(0,13)" x2="360" y2="0" stroke="#ddd" stroke-width="1" opacity="1"></line></g></g><path class="foreground" aria-hidden="true" d="" pointer-events="none" display="none"></path></g></g><g class="mark-group role-axis" role="graphics-symbol" aria-roledescription="axis" aria-label="X-axis titled 'Time' for a time scale with values from Tuesday, 01 January 2019, 12:00:00 AM to Sunday, 01 January 2045, 12:00:00 AM"><g transform="translate(0.5,120.5)"><path class="background" aria-hidden="true" d="M0,0h0v0h0Z" pointer-events="none"></path><g><g class="mark-rule role-axis-tick" pointer-events="none"><line transform="translate(14,0)" x2="0" y2="5" stroke="#888" stroke-width="1" opacity="1"></line><line transform="translate(42,0)" x2="0" y2="5" stroke="#888" stroke-width="1" opacity="1"></line><line transform="translate(69,0)" x2="0" y2="5" stroke="#888" stroke-width="1" opacity="1"></line><line transform="translate(97,0)" x2="0" y2="5" stroke="#888" stroke-width="1" opacity="1"></line><line transform="translate(125,0)" x2="0" y2="5" stroke="#888" stroke-width="1" opacity="1"></line><line transform="translate(152,0)" x2="0" y2="5" stroke="#888" stroke-width="1" opacity="1"></line><line transform="translate(180,0)" x2="0" y2="5" stroke="#888" stroke-width="1" opacity="1"></line><line transform="translate(208,0)" x2="0" y2="5" stroke="#888" stroke-width="1" opacity="1"></line><line transform="translate(235,0)" x2="0" y2="5" stroke="#888" stroke-width="1" opacity="1"></line><line transform="translate(263,0)" x2="0" y2="5" stroke="#888" stroke-width="1" opacity="1"></line><line transform="translate(291,0)" x2="0" y2="5" stroke="#888" stroke-width="1" opacity="1"></line><line transform="translate(318,0)" x2="0" y2="5" stroke="#888" stroke-width="1" opacity="1"></line><line transform="translate(346,0)" x2="0" y2="5" stroke="#888" stroke-width="1" opacity="1"></line></g><g class="mark-text role-axis-label" pointer-events="none"><text text-anchor="middle" transform="translate(13.83594819416658,15)" font-family="sans-serif" font-size="10px" fill="#000" opacity="1">2020</text><text text-anchor="middle" transform="translate(41.54575128988101,15)" font-family="sans-serif" font-size="10px" fill="#000" opacity="1">2022</text><text text-anchor="middle" transform="translate(69.21764767821416,15)" font-family="sans-serif" font-size="10px" fill="#000" opacity="1">2024</text><text text-anchor="middle" transform="translate(96.9274507739286,15)" font-family="sans-serif" font-size="10px" fill="#000" opacity="1">2026</text><text text-anchor="middle" transform="translate(124.59934716226176,15)" font-family="sans-serif" font-size="10px" fill="#000" opacity="1">2028</text><text text-anchor="middle" transform="translate(152.3091502579762,15)" font-family="sans-serif" font-size="10px" fill="#000" opacity="1">2030</text><text text-anchor="middle" transform="translate(179.98104664630938,15)" font-family="sans-serif" font-size="10px" fill="#000" opacity="1">2032</text><text text-anchor="middle" transform="translate(207.6908497420238,15)" font-family="sans-serif" font-size="10px" fill="#000" opacity="1">2034</text><text text-anchor="middle" transform="translate(235.36274613035695,15)" font-family="sans-serif" font-size="10px" fill="#000" opacity="1">2036</text><text text-anchor="middle" transform="translate(263.0725492260714,15)" font-family="sans-serif" font-size="10px" fill="#000" opacity="1">2038</text><text text-anchor="middle" transform="translate(290.7444456144045,15)" font-family="sans-serif" font-size="10px" fill="#000" opacity="1">2040</text><text text-anchor="middle" transform="translate(318.454248710119,15)" font-family="sans-serif" font-size="10px" fill="#000" opacity="1">2042</text><text text-anchor="middle" transform="translate(346.1261450984521,15)" font-family="sans-serif" font-size="10px" fill="#000" opacity="1">2044</text></g><g class="mark-rule role-axis-domain" pointer-events="none"><line transform="translate(0,0)" x2="360" y2="0" stroke="#888" stroke-width="1" opacity="1"></line></g><g class="mark-text role-axis-title" pointer-events="none"><text text-anchor="middle" transform="translate(180,30)" font-family="sans-serif" font-size="11px" font-weight="bold" fill="#000" opacity="1">Time</text></g></g><path class="foreground" aria-hidden="true" d="" pointer-events="none" display="none"></path></g></g><g class="mark-group role-axis" role="graphics-symbol" aria-roledescription="axis" aria-label="Y-axis titled 'CO₂ emissions (GtCO₂e/year)' for a linear scale with values from 0 to 45"><g transform="translate(0.5,0.5)"><path class="background" aria-hidden="true" d="M0,0h0v0h0Z" pointer-events="none"></path><g><g class="mark-rule role-axis-tick" pointer-events="none"><line transform="translate(0,120)" x2="-5" y2="0" stroke="#888" stroke-width="1" opacity="1"></line><line transform="translate(0,67)" x2="-5" y2="0" stroke="#888" stroke-width="1" opacity="1"></line><line transform="translate(0,13)" x2="-5" y2="0" stroke="#888" stroke-width="1" opacity="1"></line></g><g class="mark-text role-axis-label" pointer-events="none"><text text-anchor="end" transform="translate(-7,123)" font-family="sans-serif" font-size="10px" fill="#000" opacity="1">0</text><text text-anchor="end" transform="translate(-7,69.66666666666667)" font-family="sans-serif" font-size="10px" fill="#000" opacity="1">20</text><text text-anchor="end" transform="translate(-7,16.33333333333334)" font-family="sans-serif" font-size="10px" fill="#000" opacity="1">40</text></g><g class="mark-rule role-axis-domain" pointer-events="none"><line transform="translate(0,120)" x2="0" y2="-120" stroke="#888" stroke-width="1" opacity="1"></line></g><g class="mark-text role-axis-title" pointer-events="none"><text text-anchor="middle" transform="translate(-22.123046875,60) rotate(-90) translate(0,-2)" font-family="sans-serif" font-size="11px" font-weight="bold" fill="#000" opacity="1">CO₂ emissions (GtCO₂e/year)</text></g></g><path class="foreground" aria-hidden="true" d="" pointer-events="none" display="none"></path></g></g><g class="mark-rect role-mark concat_0_layer_0_layer_0_marks" role="graphics-object" aria-roledescription="rect mark container"><path aria-label="t_0: Jan 01, 2021; t_l: May 10, 2036; zero_emissions: 0; init_ghg_emissions: 42.1" role="graphics-symbol" aria-roledescription="rect mark" d="M27.709803095714438,7.73333333333333h212.5961217406374v112.26666666666667h-212.5961217406374Z" fill="red" opacity="0.15"></path></g><g class="mark-text role-mark concat_0_layer_0_layer_1_marks" role="graphics-object" aria-roledescription="text mark container"><text aria-label="t_0: Jan 01, 2021; zero_emissions: 0; remaining_emissions_subtext: Remaining emissions budget:,647 GtCO₂e as of 2021/01" role="graphics-symbol" aria-roledescription="text mark" text-anchor="start" transform="translate(32.709803095714435,98)" font-family="sans-serif" font-size="11px" fill="red" opacity="0.6"><tspan>Remaining emissions budget:</tspan><tspan x="0" dy="13">647 GtCO₂e as of 2021/01</tspan></text></g><g class="mark-line role-mark concat_0_layer_1_marks" role="graphics-object" aria-roledescription="line mark container"><path aria-label="Time: Jan 01, 2019; CO₂ emissions (GtCO₂e/year): 42.1" role="graphics-symbol" aria-roledescription="line mark" d="M0,7.73333333333333C0.46119827313888595,7.73333333333333,0.9223965462777719,7.73333333333333,1.3835948194166579,7.73333333333333C1.8447930925555438,7.73333333333333,2.30599136569443,7.73333333333333,2.7671896388333157,7.73333333333333C3.228387911972202,7.73333333333333,3.6895861851110876,7.73333333333333,4.150784458249974,7.73333333333333C4.61198273138886,7.73333333333333,5.073181004527745,7.73333333333333,5.534379277666631,7.73333333333333C5.995577550805518,7.73333333333333,6.456775823944404,7.73333333333333,6.91797409708329,7.73333333333333C7.379172370222176,7.73333333333333,7.840370643361061,7.73333333333333,8.301568916499948,7.73333333333333C8.762767189638833,7.73333333333333,9.22396546277772,7.73333333333333,9.685163735916605,7.73333333333333C10.14636200905549,7.73333333333333,10.607560282194378,7.73333333333333,11.068758555333263,7.73333333333333C11.529956828472148,7.73333333333333,11.991155101611035,7.73333333333333,12.45235337474992,7.73333333333333C12.913551647888807,7.73333333333333,13.374749921027693,7.73333333333333,13.83594819416658,7.73333333333333C14.298410024218175,7.73333333333333,14.760871854269771,7.73333333333333,15.223333684321366,7.73333333333333C15.68579551437296,7.73333333333333,16.148257344424557,7.73333333333333,16.610719174476152,7.73333333333333C17.073181004527747,7.73333333333333,17.535642834579342,7.73333333333333,17.998104664630937,7.73333333333333C18.46056649468253,7.73333333333333,18.923028324734126,7.73333333333333,19.38549015478572,7.73333333333333C19.847951984837316,7.73333333333333,20.31041381488891,7.73333333333333,20.772875644940505,7.73333333333333C21.2353374749921,7.73333333333333,21.6977993050437,7.73333333333333,22.160261135095293,7.73333333333333C22.622722965146888,7.73333333333333,23.085184795198483,7.73333333333333,23.547646625250078,7.73333333333333C24.010108455301673,7.73333333333333,24.47257028535327,7.73333333333333,24.935032115404866,7.73333333333333C25.39749394545646,7.73333333333333,25.859955775508055,7.73333333333333,26.32241760555965,7.73333333333333C26.784879435611245,7.73333333333333,27.247341265662843,7.73333333333333,27.709803095714438,7.73333333333333C28.17100136885332,7.73333333333333,28.63219964199221,8.219924257970023,29.093397915131092,8.4620372468795C29.55459618826998,8.704150235788978,30.015794461408863,8.945469792271703,30.47699273454775,9.186011266790196C30.938191007686637,9.426552741308688,31.399389280825524,9.66630593343148,31.86058755396441,9.905286093990453C32.3217858271033,10.144266254549427,32.78298410024219,10.382463249320184,33.24418237338107,10.619892230144043C33.705380646519956,10.8573212109679,34.16657891965884,11.09397210939999,34.62777719279772,11.329859978933596C35.088975465936606,11.565747848467204,35.5501737390755,11.800862686010028,36.01137201221438,12.035219447345682C36.47257028535327,12.269576208681338,36.933768558492154,12.5031649556459,37.394966831631045,12.736000546947523C37.85616510476993,12.968836138249143,38.31736337790882,13.200908700230848,38.7785616510477,13.43223299515541C39.239759924186586,13.663557290079972,39.70095819732547,13.894123508378641,40.16215647046435,14.123946316494894C40.62335474360324,14.353769124611148,41.08455301674213,14.582838776648488,41.54575128988101,14.81116984385293C42.0069495630199,15.039500911057372,42.468147836158785,15.267083710791383,42.929346109297676,15.493932719721544C43.39054438243656,15.720781728651705,43.85174265557545,15.94688732698884,44.31294092871433,16.172263897433897C44.77413920185322,16.397640467878954,45.23533747499211,16.622278453083183,45.69653574813099,16.846192142391885C46.157734021269874,17.070105831700587,46.618932294408765,17.293285729800132,47.08013056754765,17.515746033286103C47.54132884068653,17.738206336772073,48.002527113825415,17.959937611963316,48.4637253869643,18.180953963307704C48.92492366010318,18.401970314652093,49.38612193324207,18.622262369700902,49.84732020638096,18.84184414135243C50.30851847951985,19.061425913003955,50.76971675265873,19.280288089644458,51.23091502579762,19.498444593216867C51.692113298936505,19.716601096789276,52.153311572075395,19.934042676119947,52.61450984521428,20.15078316278688C53.07570811835316,20.367523649453812,53.53690639149205,20.58355385233117,53.99810466463094,20.798887513218464C54.45930293776982,21.014221174105757,54.92050121090871,21.228849161535187,55.381699484047594,21.44278512811063C55.842897757186485,21.656721094686073,56.30409603032537,21.86995596821053,56.76529430346426,22.082503312671122C57.22649257660314,22.295050657131714,57.68769084974203,22.506901459217552,58.14888912288092,22.71806919487418C58.6100873960198,22.929236930530806,59.071285669158684,23.139712644951206,59.53248394229757,23.349509726610886C59.99368221543645,23.559306808270566,60.45488048857534,23.768416360486636,60.916078761714225,23.976851684832255C61.37727703485311,24.185287009177873,61.838475307992,24.39303926671701,62.29967358113088,24.60012167268459C62.760871854269766,24.80720407865217,63.22207012740866,25.013607851484203,63.68326840054754,25.219346120637724C64.14446667368642,25.425084389791245,64.60566494682531,25.63014843070191,65.0668632199642,25.83455128760572C65.5280614931031,26.03895414450953,65.98925976624197,26.242687149471795,66.45045803938086,26.445763262060566C66.91165631251975,26.648839374649338,67.37285458565863,26.85124998319204,67.83405285879752,27.05300796313835C68.2952511319364,27.254765943084653,68.75644940507529,27.456134417455274,69.21764767821416,27.656311141738406C69.68010950826576,27.85703629540314,70.14257133831737,28.05655105516113,70.60503316836896,28.25569838161543C71.06749499842056,28.45484570806973,71.52995682847215,28.653340405567178,71.99241865852375,28.85119510046421C72.45488048857534,29.049049795361242,72.91734231862694,29.246256097405404,73.37980414867853,29.442826550997616C73.84226597873013,29.639397004589828,74.30472780878172,29.83532327393734,74.76718963883332,30.030617822017476C75.22965146888491,30.22591237009761,75.6921132989365,30.420566915223837,76.1545751289881,30.614593839478417C76.6170369590397,30.808620763732996,77.07949878909129,31.002011839184426,77.54196061914288,31.194779367544943C78.00442244919448,31.387546895905462,78.46688427924609,31.579682702649684,78.92934610929768,31.771199009641524C79.39180793934928,31.96271531663336,79.85426976940086,32.15360400240688,80.31673159945245,32.343877209495965C80.77919342950405,32.53415041658505,81.24165525955566,32.723800076238824,81.70411708960725,32.91283825217603C82.16657891965885,33.10187642811323,82.62904074971043,33.29003915181187,83.09150257976202,33.47810626511919C83.55270085290091,33.66565953385464,84.0138991260398,33.85311310842138,84.4750973991787,34.03970521915579C84.93629567231758,34.2262973298902,85.39749394545646,34.4122779565703,85.85869221859535,34.59765892952563C86.31989049173424,34.78303990248096,86.78108876487312,34.96781336042137,87.24228703801201,35.15199105688775C87.7034853111509,35.33616875335414,88.16468358428978,35.51974287808265,88.62588185742867,35.70272510832393C89.08708013056754,35.885707338565204,89.54827840370643,36.06808991475051,90.00947667684531,36.24988443833541C90.4706749499842,36.43167896192031,90.93187322312309,36.61287772370213,91.39307149626198,36.79349224983335C91.85426976940087,36.97410677596457,92.31546804253975,37.15412940728164,92.77666631567864,37.33357159512274C93.23786458881753,37.513013782963846,93.6990628619564,37.69186791787975,94.1602611350953,37.87014537687996C94.62145940823419,38.048422835880174,95.08265768137306,38.22611605890711,95.54385595451195,38.40323634912401C96.00505422765083,38.580356639340906,96.46625250078972,38.756896485761246,96.9274507739286,38.93286711818136C97.38864904706749,39.10883775060148,97.84984732020638,39.284231706787395,98.31104559334527,39.45906014364472C98.77224386648415,39.633888580502045,99.23344213962304,39.80814408423289,99.69464041276191,39.98183773932532C100.1558386859008,40.15553139441776,100.6170369590397,40.32865583519558,101.07823523217859,40.501222074199305C101.53943350531748,40.673788313203026,102.00063177845635,40.84578903256581,102.46183005159524,41.01723517334764C102.92302832473413,41.188681314129475,103.38422659787301,41.35956560596256,103.8454248710119,41.5298989188903C104.30662314415079,41.700232231818035,104.76782141728967,41.87000734266337,105.22901969042856,42.039235050914094C105.69021796356743,42.20846275916482,106.15141623670632,42.37713588852827,106.6126145098452,42.54526516839463C107.07381278298409,42.713394448260985,107.53501105612298,42.8809727489177,107.99620932926187,43.04801073011224C108.45740760240075,43.21504871130678,108.91860587553964,43.38153928960435,109.37980414867852,43.547493055561866C109.84100242181741,43.71344682151938,110.3022006949563,43.87885673767942,110.76339896809519,44.04373332585734C111.22459724123408,44.20860991403526,111.68579551437296,44.37294618245259,112.14699378751185,44.53675258462938C112.60819206065074,44.70055898680618,113.06939033378963,44.863828576346414,113.53058860692852,45.026571738918115C113.9917868800674,45.18931490148981,114.45298515320628,45.35152473578482,114.91418342634516,45.51321156005957C115.37538169948405,45.67489838433431,115.83657997262294,45.83605534207586,116.29777824576183,45.99669268456658C116.75897651890071,46.1573300270573,117.2201747920396,46.317440942288734,117.68137306517848,46.477035615003885C118.14257133831737,46.63663028771904,118.60376961145624,46.79570195012506,119.06496788459513,46.95426072085751C119.52616615773402,47.11281949158997,119.9873644308729,47.270858646784596,120.44856270401179,47.42838823939863C120.90976097715068,47.58591783201266,121.37095925028956,47.742931181825284,121.83215752342845,47.899438276541694C122.29335579656734,48.05594537125811,122.75455406970623,48.21193957401769,123.21575234284512,48.36743080769711C123.676950615984,48.52292204137653,124.13814888912289,48.67811309013883,124.59934716226176,48.83238567861822C125.06180899231336,48.98708093172359,125.52427082236495,49.14084335609104,125.98673265241655,49.29432260624302C126.44919448246814,49.447801856395,126.91165631251975,49.60077813718901,127.37411814257135,49.7532611795301C127.83657997262294,49.90574422187118,128.29904180267454,50.05772755954321,128.76150363272612,50.20922086028954C129.22396546277773,50.36071416103587,129.6864272928293,50.5117110006115,130.14888912288092,50.66222098400808C130.6113509529325,50.81273096740466,131.0738127829841,50.962747712075874,131.5362746130357,51.11228076066902C131.9987364430873,51.26181380926218,132.46119827313888,51.410856820658964,132.92366010319049,51.559419275567C133.38612193324207,51.70798173047503,133.84858376329368,51.856057328935144,134.31104559334526,52.00365549011723C134.77350742339686,52.15125365129932,135.23596925344845,52.29836811613619,135.69843108350005,52.44500824265954C136.16089291355166,52.59164836918289,136.62335474360324,52.737807938952066,137.08581657365485,52.88349624925735C137.54827840370643,53.02918455956262,138.01074023375804,53.17419817462838,138.47320206380962,53.3191381044912C138.9344003369485,53.4636820236167,139.3955986100874,53.60814911024574,139.85679688322628,53.75195228224747C140.31799515636516,53.895755454249205,140.77919342950406,54.03908736652675,141.24039170264294,54.18195713650158C141.70158997578181,54.32482690647641,142.16278824892072,54.46722847559411,142.6239865220596,54.609170902096466C143.08518479519847,54.75111332859882,143.54638306833738,54.892590593256465,144.00758134147625,55.03361169551572C144.46877961461513,55.17463279777497,144.92997788775403,55.31519175747625,145.3911761608929,55.45529751565197C145.8523744340318,55.59540327382769,146.3135727071707,55.73504988913448,146.77477098030957,55.874246244570045C147.23596925344845,56.01344260000561,147.69716752658735,56.15218279279084,148.15836579972623,56.29047564826537C148.6195640728651,56.4287685037399,149.080762346004,56.56660815743856,149.54196061914288,56.70400337741723C150.00315889228176,56.8413985973959,150.46435716542067,56.978343557254654,150.92555543855954,57.1148469681374C151.38675371169842,57.251350379020145,151.84795198483732,57.38740645234513,152.3091502579762,57.5230238427137C152.77034853111508,57.658641233082264,153.23154680425398,57.79381418948537,153.69274507739286,57.928551310348816C154.15394335053173,58.063288431212264,154.61514162367064,58.197584002855834,155.07633989680951,58.33144656789439C155.5375381699484,58.465309132932944,155.9987364430873,58.5987330147728,156.45993471622617,58.731726700580154C156.92113298936505,58.86472038638751,157.38233126250395,58.99727823641449,157.84352953564283,59.12940868273853C158.3047278087817,59.26153912906257,158.7659260819206,59.39323656854244,159.2271243550595,59.524509378524414C159.68832262819836,59.655782188506386,160.14952090133727,59.78662480221825,160.61071917447615,59.91704554263035C161.07191744761502,60.047466283042446,161.53311572075393,60.17745961951556,161.9943139938928,60.307033820997006C162.45551226703168,60.43660802247845,162.91671054017058,60.56575759422746,163.37790881330946,60.69449075151904C163.83910708644834,60.82322390881062,164.30030535958724,60.95153519256941,164.76150363272612,61.07943276474647C165.222701905865,61.20733033692353,165.6839001790039,61.33480877387744,166.14509845214278,61.4618761845814C166.60629672528168,61.588943595285365,167.06749499842056,61.715594591301894,167.52869327155946,61.841837228970235C167.98989154469834,61.96807986663857,168.45108981783721,62.09390879249666,168.9122880909761,62.21933201059142C169.37348636411497,62.34475522868618,169.83468463725387,62.46976742030398,170.29588291039275,62.59437653753879C170.75708118353162,62.718985654773604,171.21827945667053,62.84318641343467,171.6794777298094,62.9669867140003C172.14067600294828,63.090787014565926,172.6018742760872,63.21418160714413,173.06307254922606,63.33717834093254C173.52427082236494,63.46017507472095,173.98546909550384,63.58276873390375,174.44666736864272,63.70496711673076C174.9078656417816,63.827165499557765,175.3690639149205,63.94896342406813,175.83026218805938,64.07036863789457C176.29146046119828,64.19177385172102,176.75265873433716,64.31278120653793,177.21385700747607,64.43339839968942C177.67505528061494,64.55401559284091,178.13625355375382,64.67423750941829,178.5974518268927,64.79407179680351C179.0586501000316,64.91390608418874,179.51984837317048,65.03350902447629,179.98104664630938,65.15240412400078C180.44350847636096,65.27162496352398,180.90597030641257,65.39012688877517,181.36843213646415,65.50841057676945C181.83089396651573,65.62669426476373,182.29335579656734,65.74459032335177,182.75581762661892,65.86210625196644C183.21827945667053,65.9796221805811,183.6807412867221,66.09675299582631,184.14320311677372,66.21350614845741C184.6056649468253,66.33025930108852,185.0681267768769,66.4466298400558,185.5305886069285,66.56262516775304C185.9930504369801,66.67862049545028,186.4555122670317,66.79423569296418,186.91797409708332,66.9094781146408C187.3804359271349,67.02472053631742,187.8428977571865,67.13958529517133,188.3053595872381,67.25407969781276C188.76782141728967,67.36857410045418,189.23028324734128,67.48269329161829,189.69274507739286,67.59644453048936C190.15520690744447,67.71019576936044,190.61766873749605,67.82357423218834,191.08013056754766,67.93658713103918C191.54259239759924,68.04960002989002,192.00505422765085,68.16224257232383,192.46751605770243,68.27452192359443C192.929977887754,68.38680127486504,193.39243971780562,68.4985606506919,193.8549015478572,68.61026323866278C194.3160998209961,68.72166062830588,194.77729809413498,68.83299880453067,195.23849636727388,68.94382531373499C195.69969464041276,69.0546518229393,196.16089291355166,69.16511514077982,196.62209118669054,69.27522229388867C197.08328945982942,69.38532944699753,197.54448773296832,69.49507576615619,198.0056860061072,69.60446823238813C198.46688427924607,69.71386069862007,198.92808255238495,69.82289467301386,199.38928082552383,69.93157709128033C199.85047909866273,70.0402595095468,200.3116773718016,70.14858576288492,200.7728756449405,70.25656274198697C201.2340739180794,70.36453972108902,201.6952721912183,70.47216284706892,202.15647046435717,70.57943896589265C202.61766873749605,70.68671508471638,203.07886701063492,70.79363964721861,203.5400652837738,70.90021945492934C204.0012635569127,71.00679926264007,204.46246183005158,71.11302979592185,204.92366010319049,71.21891781215706C205.38485837632936,71.32480582839227,205.84605664946827,71.43034683727969,206.30725492260714,71.53554755234065C206.76845319574602,71.6407482674016,207.22965146888492,71.74560422748065,207.6908497420238,71.85012210252285C208.15204801516268,71.95463997756504,208.61324628830155,72.0588153353715,209.07444456144043,72.1626548025938C209.53564283457933,72.2664942698161,209.9968411077182,72.369993443024,210.45803938085712,72.47315890585664C210.919237653996,72.57632436868926,211.3804359271349,72.6791517462983,211.84163420027377,72.78164757958957C212.30283247341265,72.88414341288083,212.76403074655153,72.98630335540241,213.2252290196904,73.08813390560422C213.6864272928293,73.18996445580603,214.14762556596818,73.29146129544824,214.6088238391071,73.39263088080043C215.07002211224597,73.4938004661526,215.53122038538487,73.59463850700389,215.99241865852375,73.6951514177173C216.45361693166262,73.7956643284307,216.91481520480153,73.89584784664241,217.3760134779404,73.99570834508089C217.83721175107928,74.09556884351935,218.29841002421816,74.19510208748703,218.75960829735703,74.2943144083481C219.22080657049594,74.39352672920917,219.68200484363481,74.49241391975279,220.14320311677372,74.59098227024731C220.6044013899126,74.68955062074183,221.0655996630515,74.7877959512847,221.52679793619038,74.88572451131523C221.98799620932925,74.98365307134576,222.44919448246813,75.08126070809242,222.910392755607,75.17855363043044C223.3715910287459,75.27584655276847,223.8327893018848,75.37282063488131,224.2939875750237,75.46948204534343C224.75518584816257,75.56614345580554,225.21638412130147,75.66248809558034,225.67758239444035,75.75852209320314C226.13878066757925,75.85455609082594,226.59997894071813,75.9502753738663,227.06117721385704,76.04568603108024C227.5223754869959,76.14109668829417,227.98357376013476,76.2361946736847,228.44477203327364,76.33098603648673C228.90597030641254,76.42577739928879,229.36716857955142,76.52025811976726,229.82836685269032,76.61443420789254C230.2895651258292,76.70861029601782,230.7507633989681,76.80247775814621,231.21196167210698,76.8960425652384C231.67315994524589,76.9896073723306,232.13435821838476,77.08286555666497,232.59555649152367,77.17582305044571C233.05675476466254,77.26878054422646,233.51795303780142,77.36143340548577,233.9791513109403,77.45378752792287C234.44034958407917,77.54614165035997,234.90154785721808,77.63831747776437,235.36274613035695,77.72994778506832C235.82520796040853,77.82182913431008,236.28766979046014,77.91315642929789,236.75013162051172,78.00431553277065C237.21259345056333,78.09547463624341,237.67505528061494,78.18633500072897,238.13751711066655,78.27690240590492C238.59997894071813,78.36746981108085,239.06244077076974,78.45774041631964,239.52490260082132,78.54771996382628C239.98736443072667,78.63769951130448,240.449826260632,78.72738418538032,240.91228809053734,78.81677969085999C241.37474992058895,78.90617519636793,241.83721175064056,78.99527774237598,242.29967358069217,79.08409299678857C242.76213541074375,79.17290825120116,243.22459724079536,79.26143244769261,243.68705907084694,79.34967121733554C244.14952090089852,79.43790998697847,244.61198273095013,79.5258595879079,245.0744445610017,79.61352561464614C245.53690639105332,79.70119164138437,245.9993682211049,79.78857037635424,246.4618300511565,79.87566737776496C246.9242918812081,79.96276437917567,247.3867537112597,80.0495759535802,247.84921554131128,80.13610762311039C248.31167737136286,80.22263929264058,248.77413920141447,80.30877022648116,249.23660103146605,80.39485739494606C249.69779930460496,80.48070935256817,250.15899757774383,80.5665156754775,250.62019585088274,80.65192766584909C251.0813941240216,80.73733965622066,251.54259239716052,80.82247174156328,252.0037906702994,80.90732933717551C252.46498894343827,80.99218693278775,252.92618721657718,81.07676644018714,253.38738548971605,81.1610732395225C253.84858376285493,81.24538003885785,254.3097820359938,81.32941055500385,254.77098030913268,81.41317013318763C255.2321785822716,81.49692971137142,255.69337685541046,81.58041479967324,256.15457512854937,81.66363070862525C256.6157734016883,81.74684661757726,257.0769716748271,81.82978981831462,257.538169947966,81.91246558689974C257.99936822110493,81.99514135548486,258.4605664942438,82.07754618595813,258.9217647673827,82.15968532013596C259.3829630405216,82.2418244543138,259.84416131366044,82.32369440899319,260.30535958679934,82.40530039196676C260.76655785993825,82.48690637494033,261.2277561330771,82.56824492561395,261.688954406216,82.6493212179774C262.1501526793549,82.73039751034085,262.61135095249375,82.81120810626214,263.07254922563266,82.89175814614748C263.53374749877156,82.97230818603282,263.9949457719104,83.05259425406656,264.4561440450493,83.13262145728947C264.9173423181882,83.21264866051239,265.37854059132707,83.29241360528029,265.83973886446597,83.37192136548498C266.3009371376049,83.45142912568967,266.7621354107437,83.53067632971454,267.22333368388263,83.60966801851764C267.68453195702153,83.68865970732074,268.1457302301604,83.76739253117002,268.6069285032993,83.84587149830355C269.0681267764382,83.92435046543709,269.52932504957704,84.00257224786537,269.99052332271594,84.08054182131883C270.45172159585485,84.15851139477229,270.9129198689937,84.23622545286285,271.3741181421326,84.31368893902433C271.8353164152715,84.39115242518581,272.29651468841035,84.46836205449131,272.75771296154926,84.54532273828767C273.21891123468816,84.62228342208402,273.680109507827,84.69899189676624,274.1413077809659,84.77545304180245C274.6025060541048,84.85191418683866,275.06370432724367,84.92812475980737,275.5249026003826,85.0040896085049C275.9861008735215,85.08005445720242,276.4472991466603,85.1557703602533,276.90849741979923,85.23124213398759C277.36969569293814,85.30671390772189,277.830893966077,85.38193835167354,278.2920922392159,85.45692025091064C278.7532905123548,85.53190215014774,279.21448878549364,85.60663832497795,279.67568705863255,85.68113352941025C280.13688533177145,85.75562873384254,280.5980836049103,85.82987980882342,281.0592818780492,85.90389147750443C281.5204801511881,85.97790314618544,281.98167842432696,86.05167227001795,282.44287669746586,86.12520354149632C282.90407497060477,86.19873481297469,283.3652732437436,86.27202511392207,283.8264715168825,86.34507910637464C284.2876697900214,86.41813309882721,284.7488680631603,86.4909476848477,285.2100663362992,86.56352749621178C285.6712646094381,86.63610730757586,286.13246288257693,86.70844926645444,286.59366115571584,86.78055797455914C287.05485942885474,86.85266668266385,287.5160577019936,86.92453908214323,287.9772559751325,86.99617974483999C288.4384542482714,87.06782040753676,288.89965252141025,87.13922629544749,289.36085079454915,87.21040195073977C289.82204906768806,87.28157760603204,290.2832473408269,87.35261585256063,290.7444456139658,87.4232336765937C291.2069074440174,87.49404497411726,291.66936927406897,87.56442927202724,292.1318311041206,87.63468394777222C292.5942929341722,87.7049386235172,293.0567547642238,87.77496306651659,293.5192165942754,87.84476173106358C293.981678424327,87.91456039561058,294.44414025437857,87.98413032181374,294.9066020844302,88.05347593505417C295.3690639144818,88.1228215482946,295.83152574453334,88.19193990789302,296.29398757458495,88.26083541050616C296.75644940463656,88.3297309131193,297.21891123468816,88.39840063715535,297.6813730647398,88.46684895073304C298.1438348947914,88.53529726431073,298.60629672484293,88.6035212648018,299.06875855489454,88.6715252919723C299.53122038494615,88.7395293191428,299.9936822149977,88.80731048920492,300.4561440450493,88.87487311375602C300.9186058751009,88.94243573830713,301.3810677051525,89.00977695227759,301.8435295352041,89.07690103927892C302.3059913652557,89.14402512628025,302.76845319530725,89.21092923983953,303.23091502535885,89.27761763576403C303.69337685541046,89.34430603168853,304.1558386854621,89.4106855878498,304.6183005155137,89.47703141482596C305.0794987886526,89.54319596905081,305.54069706179143,89.6093253534262,306.00189533493034,89.6751508328319C306.46309360806924,89.7409763122376,306.9242918812081,89.80658607388939,307.385490154347,89.87198429126016C307.8466884274859,89.93738250863093,308.30788670062475,90.0025664084352,308.76908497376365,90.06754013705653C309.23028324690256,90.13251386567785,309.6914815200414,90.19727466783168,310.1526797931803,90.26182666298811C310.6138780663192,90.32637865814455,311.07507633945806,90.39071910890311,311.53627461259697,90.45485210799512C311.9974728857359,90.51898510708713,312.4586711588747,90.58290793488014,312.9198694320136,90.64662465754022C313.38106770515253,90.71034138020029,313.8422659782914,90.77384929574762,314.3034642514303,90.83715244395553C314.7646625245692,90.90045559216344,315.22586079770804,90.96355128859022,315.68705907084694,91.0264435467877C316.14825734398585,91.08933580498518,316.6094556171247,91.1520219579359,317.0706538902636,91.21450599314036C317.5318521634025,91.27699002834483,317.99305043654135,91.33926929609676,318.45424870968026,91.40134775801451C318.91544698281916,91.46342621993226,319.376645255958,91.52530124350832,319.8378435290969,91.58697676464686C320.2990418022358,91.6486522857854,320.76024007537467,91.71012568906606,321.2214383485136,91.7714008848457C321.6826366216525,91.83267608062535,322.1438348947913,91.89375047045989,322.60503316793023,91.95462793932472C323.06623144106914,92.01550540818955,323.527429714208,92.07618337450667,323.9886279873469,92.13666569803472C324.4498262604858,92.19714802156277,324.91102453362464,92.25743213748034,325.37222280676355,92.31752188049305C325.83342107990245,92.37761162350576,326.2946193530413,92.43750444544,326.7558176261802,92.49720415611098C327.2170158993191,92.55690386678197,327.67821417245796,92.61640793455584,328.13941244559686,92.67572014451895C328.60061071873577,92.73503235448206,329.0618089918746,92.79415019143295,329.5230072650135,92.85307741588962C329.9842055381524,92.91200464034628,330.44540381129127,92.97073875343305,330.9066020844302,93.029283491259C331.3678003575691,93.08782822908493,331.82899863070793,93.14618110899416,332.29019690384683,93.20434584284529C332.75139517698574,93.26251057669641,333.2125934501246,93.32048469794803,333.6737917232635,93.37827189436578C334.1349899964024,93.43605909078353,334.59618826954124,93.49365691183586,335.05738654268015,93.55106902135174C335.51858481581905,93.60848113086762,335.9797830889579,93.66570509422148,336.4409813620968,93.72274455146102C336.9021796352357,93.77978400870056,337.36337790837456,93.83663654100296,337.82457618151346,93.89330576478896C338.28577445465237,93.94997498857497,338.7469727277912,94.00645850072192,339.2081710009301,94.06275989417699C339.669369274069,94.11906128763206,340.1305675472079,94.17517817487091,340.5917658203468,94.23111412551943C341.0529640934857,94.28705007616794,341.51416236662453,94.34280271819881,341.97536063976344,94.39837559806811C342.43655891290234,94.45394847793742,342.8977571860412,94.50933923901425,343.3589554591801,94.56455140473525C343.820153732319,94.61976357045626,344.28135200545785,94.67479479948703,344.74255027859675,94.72964859239417C345.20374855173566,94.78450238530131,345.6649468248745,94.83925027975434,346.1261450980134,94.89367416217812C346.588606928065,94.94824715112908,347.0510687581166,95.00249105918463,347.51353058816824,95.05663506977714C347.97599241821985,95.11077908036965,348.4384542482714,95.16474565474053,348.900916078323,95.21853822573314C349.3633779083746,95.27233079672575,349.82583973842617,95.32594708320521,350.2883015684778,95.37939049573284C350.7507633985294,95.43283390826046,351.21322522858094,95.4861021805078,351.67568705863255,95.53919870089888C352.13814888868416,95.59229522128996,352.6006107187357,95.64521773820665,353.0630725487873,95.69796961807928C353.5255343788389,95.75072149795191,353.9879962088905,95.80330050377724,354.4504580389421,95.85570998013462C354.9129198689937,95.908119456492,355.3753816990453,95.96035718089824,355.8378435290969,96.0124264762236C356.3003053591485,96.06449577154895,356.7627671892001,96.11639442973595,357.2252290192517,96.16812575208672C357.6876908493033,96.2198570744375,358.15015267935485,96.2714188672267,358.61261450940646,96.3228144103282C359.07507633945806,96.37420995342971,359.5375381695097,96.43833003093746,359.9999999995613,96.47649901069579C359.99999999970754,96.47649901070785,359.99999999985374,96.47649901071993,360,96.476499010732" stroke="#4c78a8" stroke-width="1"></path></g></g><path class="foreground" aria-hidden="true" d="" display="none"></path></g></g><g class="mark-group role-scope concat_1_group" role="graphics-object" aria-roledescription="group mark container"><g transform="translate(0,191)"><path class="background" aria-hidden="true" d="M0.5,0.5h360v180h-360Z" stroke="#ddd"></path><g><g class="mark-group role-axis" aria-hidden="true"><g transform="translate(0.5,0.5)"><path class="background" aria-hidden="true" d="M0,0h0v0h0Z" pointer-events="none"></path><g><g class="mark-rule role-axis-grid" pointer-events="none"><line transform="translate(14,180)" x2="0" y2="-180" stroke="#ddd" stroke-width="1" opacity="1"></line><line transform="translate(42,180)" x2="0" y2="-180" stroke="#ddd" stroke-width="1" opacity="1"></line><line transform="translate(69,180)" x2="0" y2="-180" stroke="#ddd" stroke-width="1" opacity="1"></line><line transform="translate(97,180)" x2="0" y2="-180" stroke="#ddd" stroke-width="1" opacity="1"></line><line transform="translate(125,180)" x2="0" y2="-180" stroke="#ddd" stroke-width="1" opacity="1"></line><line transform="translate(152,180)" x2="0" y2="-180" stroke="#ddd" stroke-width="1" opacity="1"></line><line transform="translate(180,180)" x2="0" y2="-180" stroke="#ddd" stroke-width="1" opacity="1"></line><line transform="translate(208,180)" x2="0" y2="-180" stroke="#ddd" stroke-width="1" opacity="1"></line><line transform="translate(235,180)" x2="0" y2="-180" stroke="#ddd" stroke-width="1" opacity="1"></line><line transform="translate(263,180)" x2="0" y2="-180" stroke="#ddd" stroke-width="1" opacity="1"></line><line transform="translate(291,180)" x2="0" y2="-180" stroke="#ddd" stroke-width="1" opacity="1"></line><line transform="translate(318,180)" x2="0" y2="-180" stroke="#ddd" stroke-width="1" opacity="1"></line><line transform="translate(346,180)" x2="0" y2="-180" stroke="#ddd" stroke-width="1" opacity="1"></line></g></g><path class="foreground" aria-hidden="true" d="" pointer-events="none" display="none"></path></g></g><g class="mark-group role-axis" aria-hidden="true"><g transform="translate(0.5,0.5)"><path class="background" aria-hidden="true" d="M0,0h0v0h0Z" pointer-events="none"></path><g><g class="mark-rule role-axis-grid" pointer-events="none"><line transform="translate(0,180)" x2="360" y2="0" stroke="#ddd" stroke-width="1" opacity="1"></line><line transform="translate(0,154)" x2="360" y2="0" stroke="#ddd" stroke-width="1" opacity="1"></line><line transform="translate(0,129)" x2="360" y2="0" stroke="#ddd" stroke-width="1" opacity="1"></line><line transform="translate(0,103)" x2="360" y2="0" stroke="#ddd" stroke-width="1" opacity="1"></line><line transform="translate(0,77)" x2="360" y2="0" stroke="#ddd" stroke-width="1" opacity="1"></line><line transform="translate(0,51)" x2="360" y2="0" stroke="#ddd" stroke-width="1" opacity="1"></line><line transform="translate(0,26)" x2="360" y2="0" stroke="#ddd" stroke-width="1" opacity="1"></line><line transform="translate(0,0)" x2="360" y2="0" stroke="#ddd" stroke-width="1" opacity="1"></line></g></g><path class="foreground" aria-hidden="true" d="" pointer-events="none" display="none"></path></g></g><g class="mark-group role-axis" role="graphics-symbol" aria-roledescription="axis" aria-label="X-axis for a time scale with values from Tuesday, 01 January 2019, 12:00:00 AM to Sunday, 01 January 2045, 12:00:00 AM"><g transform="translate(0.5,0.5)"><path class="background" aria-hidden="true" d="M0,0h0v0h0Z" pointer-events="none"></path><g><g class="mark-rule role-axis-tick" pointer-events="none"><line transform="translate(14,0)" x2="0" y2="-5" stroke="#888" stroke-width="1" opacity="1"></line><line transform="translate(42,0)" x2="0" y2="-5" stroke="#888" stroke-width="1" opacity="1"></line><line transform="translate(69,0)" x2="0" y2="-5" stroke="#888" stroke-width="1" opacity="1"></line><line transform="translate(97,0)" x2="0" y2="-5" stroke="#888" stroke-width="1" opacity="1"></line><line transform="translate(125,0)" x2="0" y2="-5" stroke="#888" stroke-width="1" opacity="1"></line><line transform="translate(152,0)" x2="0" y2="-5" stroke="#888" stroke-width="1" opacity="1"></line><line transform="translate(180,0)" x2="0" y2="-5" stroke="#888" stroke-width="1" opacity="1"></line><line transform="translate(208,0)" x2="0" y2="-5" stroke="#888" stroke-width="1" opacity="1"></line><line transform="translate(235,0)" x2="0" y2="-5" stroke="#888" stroke-width="1" opacity="1"></line><line transform="translate(263,0)" x2="0" y2="-5" stroke="#888" stroke-width="1" opacity="1"></line><line transform="translate(291,0)" x2="0" y2="-5" stroke="#888" stroke-width="1" opacity="1"></line><line transform="translate(318,0)" x2="0" y2="-5" stroke="#888" stroke-width="1" opacity="1"></line><line transform="translate(346,0)" x2="0" y2="-5" stroke="#888" stroke-width="1" opacity="1"></line></g><g class="mark-text role-axis-label" pointer-events="none"><text text-anchor="middle" transform="translate(13.83594819416658,-9)" font-family="sans-serif" font-size="10px" fill="#000" opacity="1">2020</text><text text-anchor="middle" transform="translate(41.54575128988101,-9)" font-family="sans-serif" font-size="10px" fill="#000" opacity="1">2022</text><text text-anchor="middle" transform="translate(69.21764767821416,-9)" font-family="sans-serif" font-size="10px" fill="#000" opacity="1">2024</text><text text-anchor="middle" transform="translate(96.9274507739286,-9)" font-family="sans-serif" font-size="10px" fill="#000" opacity="1">2026</text><text text-anchor="middle" transform="translate(124.59934716226176,-9)" font-family="sans-serif" font-size="10px" fill="#000" opacity="1">2028</text><text text-anchor="middle" transform="translate(152.3091502579762,-9)" font-family="sans-serif" font-size="10px" fill="#000" opacity="1">2030</text><text text-anchor="middle" transform="translate(179.98104664630938,-9)" font-family="sans-serif" font-size="10px" fill="#000" opacity="1">2032</text><text text-anchor="middle" transform="translate(207.6908497420238,-9)" font-family="sans-serif" font-size="10px" fill="#000" opacity="1">2034</text><text text-anchor="middle" transform="translate(235.36274613035695,-9)" font-family="sans-serif" font-size="10px" fill="#000" opacity="1">2036</text><text text-anchor="middle" transform="translate(263.0725492260714,-9)" font-family="sans-serif" font-size="10px" fill="#000" opacity="1">2038</text><text text-anchor="middle" transform="translate(290.7444456144045,-9)" font-family="sans-serif" font-size="10px" fill="#000" opacity="1">2040</text><text text-anchor="middle" transform="translate(318.454248710119,-9)" font-family="sans-serif" font-size="10px" fill="#000" opacity="1">2042</text><text text-anchor="middle" transform="translate(346.1261450984521,-9)" font-family="sans-serif" font-size="10px" fill="#000" opacity="1">2044</text></g><g class="mark-rule role-axis-domain" pointer-events="none"><line transform="translate(0,0)" x2="360" y2="0" stroke="#888" stroke-width="1" opacity="1"></line></g></g><path class="foreground" aria-hidden="true" d="" pointer-events="none" display="none"></path></g></g><g class="mark-group role-axis" role="graphics-symbol" aria-roledescription="axis" aria-label="Y-axis titled 'Reduction (cB)' for a linear scale with values from -70 to 0"><g transform="translate(0.5,0.5)"><path class="background" aria-hidden="true" d="M0,0h0v0h0Z" pointer-events="none"></path><g><g class="mark-rule role-axis-tick" pointer-events="none"><line transform="translate(0,180)" x2="-5" y2="0" stroke="#888" stroke-width="1" opacity="1"></line><line transform="translate(0,154)" x2="-5" y2="0" stroke="#888" stroke-width="1" opacity="1"></line><line transform="translate(0,129)" x2="-5" y2="0" stroke="#888" stroke-width="1" opacity="1"></line><line transform="translate(0,103)" x2="-5" y2="0" stroke="#888" stroke-width="1" opacity="1"></line><line transform="translate(0,77)" x2="-5" y2="0" stroke="#888" stroke-width="1" opacity="1"></line><line transform="translate(0,51)" x2="-5" y2="0" stroke="#888" stroke-width="1" opacity="1"></line><line transform="translate(0,26)" x2="-5" y2="0" stroke="#888" stroke-width="1" opacity="1"></line><line transform="translate(0,0)" x2="-5" y2="0" stroke="#888" stroke-width="1" opacity="1"></line></g><g class="mark-text role-axis-label" pointer-events="none"><text text-anchor="end" transform="translate(-7,183)" font-family="sans-serif" font-size="10px" fill="#000" opacity="1">-70</text><text text-anchor="end" transform="translate(-7,157.2857142857143)" font-family="sans-serif" font-size="10px" fill="#000" opacity="1">-60</text><text text-anchor="end" transform="translate(-7,131.57142857142858)" font-family="sans-serif" font-size="10px" fill="#000" opacity="1">-50</text><text text-anchor="end" transform="translate(-7,105.85714285714285)" font-family="sans-serif" font-size="10px" fill="#000" opacity="1">-40</text><text text-anchor="end" transform="translate(-7,80.14285714285715)" font-family="sans-serif" font-size="10px" fill="#000" opacity="1">-30</text><text text-anchor="end" transform="translate(-7,54.42857142857142)" font-family="sans-serif" font-size="10px" fill="#000" opacity="1">-20</text><text text-anchor="end" transform="translate(-7,28.714285714285722)" font-family="sans-serif" font-size="10px" fill="#000" opacity="1">-10</text><text text-anchor="end" transform="translate(-7,3)" font-family="sans-serif" font-size="10px" fill="#000" opacity="1">0</text></g><g class="mark-rule role-axis-domain" pointer-events="none"><line transform="translate(0,180)" x2="0" y2="-180" stroke="#888" stroke-width="1" opacity="1"></line></g><g class="mark-text role-axis-title" pointer-events="none"><text text-anchor="middle" transform="translate(-25.453125,90) rotate(-90) translate(0,-2)" font-family="sans-serif" font-size="11px" font-weight="bold" fill="#000" opacity="1">Reduction (cB)</text></g></g><path class="foreground" aria-hidden="true" d="" pointer-events="none" display="none"></path></g></g><g class="mark-line role-mark concat_1_layer_0_marks" role="graphics-object" aria-roledescription="line mark container"><path aria-label="t: Jan 01, 2019; Reduction (cB): 0" role="graphics-symbol" aria-roledescription="line mark" d="M0,0L27.709803095714438,0L240.30592483635183,111.67572391797903L360,174.5354237381683" stroke="#4c78a8" stroke-width="1"></path></g><g class="mark-text role-mark concat_1_layer_1_layer_0_marks" role="graphics-object" aria-roledescription="text mark container"><text aria-label="t: Jan 01, 2045; Reduction (cB): -67.8748870093; cB_reduction_speed_description: -2.83 cB/year" role="graphics-symbol" aria-roledescription="text mark" text-anchor="start" transform="translate(364,177.5354237381683)" font-family="sans-serif" font-size="11px" fill="black">-2.83 cB/year</text></g></g><path class="foreground" aria-hidden="true" d="" display="none"></path></g></g><g class="mark-group role-title"><g transform="translate(196.4833984375,381)"><path class="background" aria-hidden="true" d="M0,0h0v0h0Z" pointer-events="none"></path><g><g class="mark-text role-title-text" role="graphics-symbol" aria-roledescription="title" aria-label="Title text 'Exponential-decay emissions reduction pathway'" pointer-events="none"><text text-anchor="middle" transform="translate(0,10)" font-family="sans-serif" font-size="13px" font-weight="bold" fill="#000" opacity="1">Exponential-decay emissions reduction pathway</text></g></g><path class="foreground" aria-hidden="true" d="" pointer-events="none" display="none"></path></g></g></g><path class="foreground" aria-hidden="true" d="" display="none"></path></g></g></g></svg>