<svg class="marks" width="751" height="264" viewBox="0 0 751 264" version="1.1" xmlns="http://www.w3.org/2000/svg" xmlns:xlink="http://www.w3.org/1999/xlink"><g fill="none" stroke-miterlimit="10" transform="translate(108,54)"><g class="mark-group role-frame root" role="graphics-object" aria-roledescription="group mark container"><g transform="translate(0,0)"><path class="background" aria-hidden="true" d="M0,0h400v200h-400Z"></path><g><g class="mark-group role-axis" role="graphics-symbol" aria-roledescription="axis" aria-label="X-axis titled 'Time' for a time scale with values from Wednesday, 01 January 2020, 12:00:00 AM to Saturday, 01 January 2050, 12:00:00 AM"><g transform="translate(0.5,0.5)"><path class="background" aria-hidden="true" d="M0,0h0v0h0Z" pointer-events="none"></path><g><g class="mark-rule role-axis-grid" pointer-events="none"><line transform="translate(0,0)" x2="0" y2="200" stroke="#ddd" stroke-width="1" opacity="1"></line><line transform="translate(27,0)" x2="0" y2="200" stroke="#ddd" stroke-width="1" opacity="1"></line><line transform="translate(53,0)" x2="0" y2="200" stroke="#ddd" stroke-width="1" opacity="1"></line><line transform="translate(80,0)" x2="0" y2="200" stroke="#ddd" stroke-width="1" opacity="1"></line><line transform="translate(107,0)" x2="0" y2="200" stroke="#ddd" stroke-width="1" opacity="1"></line><line transform="translate(133,0)" x2="0" y2="200" stroke="#ddd" stroke-width="1" opacity="1"></line><line transform="translate(160,0)" x2="0" y2="200" stroke="#ddd" stroke-width="1" opacity="1"></line><line transform="translate(187,0)" x2="0" y2="200" stroke="#ddd" stroke-width="1" opacity="1"></line><line transform="translate(213,0)" x2="0" y2="200" stroke="#ddd" stroke-width="1" opacity="1"></line><line transform="translate(240,0)" x2="0" y2="200" stroke="#ddd" stroke-width="1" opacity="1"></line><line transform="translate(267,0)" x2="0" y2="200" stroke="#ddd" stroke-width="1" opacity="1"></line><line transform="translate(293,0)" x2="0" y2="200" stroke="#ddd" stroke-width="1" opacity="1"></line><line transform="translate(320,0)" x2="0" y2="200" stroke="#ddd" stroke-width="1" opacity="1"></line><line transform="translate(347,0)" x2="0" y2="200" stroke="#ddd" stroke-width="1" opacity="1"></line><line transform="translate(373,0)" x2="0" y2="200" stroke="#ddd" stroke-width="1" opacity="1"></line><line transform="translate(400,0)" x2="0" y2="200" stroke="#ddd" stroke-width="1" opacity="1"></line></g><g class="mark-rule role-axis-tick" pointer-events="none"><line transform="translate(0,0)" x2="0" y2="-5" stroke="#888" stroke-width="1" opacity="1"></line><line transform="translate(27,0)" x2="0" y2="-5" stroke="#888" stroke-width="1" opacity="1"></line><line transform="translate(53,0)" x2="0" y2="-5" stroke="#888" stroke-width="1" opacity="1"></line><line transform="translate(80,0)" x2="0" y2="-5" stroke="#888" stroke-width="1" opacity="1"></line><line transform="translate(107,0)" x2="0" y2="-5" stroke="#888" stroke-width="1" opacity="1"></line><line transform="translate(133,0)" x2="0" y2="-5" stroke="#888" stroke-width="1" opacity="1"></line><line transform="translate(160,0)" x2="0" y2="-5" stroke="#888" stroke-width="1" opacity="1"></line><line transform="translate(187,0)" x2="0" y2="-5" stroke="#888" stroke-width="1" opacity="1"></line><line transform="translate(213,0)" x2="0" y2="-5" stroke="#888" stroke-width="1" opacity="1"></line><line transform="translate(240,0)" x2="0" y2="-5" stroke="#888" stroke-width="1" opacity="1"></line><line transform="translate(267,0)" x2="0" y2="-5" stroke="#888" stroke-width="1" opacity="1"></line><line transform="translate(293,0)" x2="0" y2="-5" stroke="#888" stroke-width="1" opacity="1"></line><line transform="translate(320,0)" x2="0" y2="-5" stroke="#888" stroke-width="1" opacity="1"></line><line transform="translate(347,0)" x2="0" y2="-5" stroke="#888" stroke-width="1" opacity="1"></line><line transform="translate(373,0)" x2="0" y2="-5" stroke="#888" stroke-width="1" opacity="1"></line><line transform="translate(400,0)" x2="0" y2="-5" stroke="#888" stroke-width="1" opacity="1"></line></g><g class="mark-text role-axis-label" pointer-events="none"><text text-anchor="middle" transform="translate(0,-9)" font-family="sans-serif" font-size="10px" fill="#000" opacity="1">2020</text><text text-anchor="middle" transform="translate(26.683701405365944,-9)" font-family="sans-serif" font-size="10px" fill="#000" opacity="1">2022</text><text text-anchor="middle" transform="translate(53.330899799233435,-9)" font-family="sans-serif" font-size="10px" fill="#000" opacity="1">2024</text><text text-anchor="middle" transform="translate(80.01460120459937,-9)" font-family="sans-serif" font-size="10px" fill="#000" opacity="1">2026</text><text text-anchor="middle" transform="translate(106.66179959846687,-9)" font-family="sans-serif" font-size="10px" fill="#000" opacity="1">2028</text><text text-anchor="middle" transform="translate(133.34550100383282,-9)" font-family="sans-serif" font-size="10px" fill="#000" opacity="1">2030</text><text text-anchor="middle" transform="translate(159.9926993977003,-9)" font-family="sans-serif" font-size="10px" fill="#000" opacity="1">2032</text><text text-anchor="middle" transform="translate(186.67640080306626,-9)" font-family="sans-serif" font-size="10px" fill="#000" opacity="1">2034</text><text text-anchor="middle" transform="translate(213.32359919693374,-9)" font-family="sans-serif" font-size="10px" fill="#000" opacity="1">2036</text><text text-anchor="middle" transform="translate(240.00730060229972,-9)" font-family="sans-serif" font-size="10px" fill="#000" opacity="1">2038</text><text text-anchor="middle" transform="translate(266.65449899616715,-9)" font-family="sans-serif" font-size="10px" fill="#000" opacity="1">2040</text><text text-anchor="middle" transform="translate(293.33820040153313,-9)" font-family="sans-serif" font-size="10px" fill="#000" opacity="1">2042</text><text text-anchor="middle" transform="translate(319.9853987954006,-9)" font-family="sans-serif" font-size="10px" fill="#000" opacity="1">2044</text><text text-anchor="middle" transform="translate(346.66910020076654,-9)" font-family="sans-serif" font-size="10px" fill="#000" opacity="1">2046</text><text text-anchor="middle" transform="translate(373.3162985946341,-9)" font-family="sans-serif" font-size="10px" fill="#000" opacity="1">2048</text><text text-anchor="middle" transform="translate(400,-9)" font-family="sans-serif" font-size="10px" fill="#000" opacity="1">2050</text></g><g class="mark-rule role-axis-domain" pointer-events="none"><line transform="translate(0,0)" x2="400" y2="0" stroke="#888" stroke-width="1" opacity="1"></line></g><g class="mark-text role-axis-title" pointer-events="none"><text text-anchor="middle" transform="translate(200,-23)" font-family="sans-serif" font-size="11px" font-weight="bold" fill="#000" opacity="1">Time</text></g></g><path class="foreground" aria-hidden="true" d="" pointer-events="none" display="none"></path></g></g><g class="mark-group role-axis" role="graphics-symbol" aria-roledescription="axis" aria-label="Y-axis titled 'GHG/GDP variation (cB)' for a linear scale with values from -120 to 0"><g transform="translate(0.5,0.5)"><path class="background" aria-hidden="true" d="M0,0h0v0h0Z" pointer-events="none"></path><g><g class="mark-rule role-axis-grid" pointer-events="none"><line transform="translate(0,200)" x2="400" y2="0" stroke="#ddd" stroke-width="1" opacity="1"></line><line transform="translate(0,183)" x2="400" y2="0" stroke="#ddd" stroke-width="1" opacity="1"></line><line transform="translate(0,167)" x2="400" y2="0" stroke="#ddd" stroke-width="1" opacity="1"></line><line transform="translate(0,150)" x2="400" y2="0" stroke="#ddd" stroke-width="1" opacity="1"></line><line transform="translate(0,133)" x2="400" y2="0" stroke="#ddd" stroke-width="1" opacity="1"></line><line transform="translate(0,117)" x2="400" y2="0" stroke="#ddd" stroke-width="1" opacity="1"></line><line transform="translate(0,100)" x2="400" y2="0" stroke="#ddd" stroke-width="1" opacity="1"></line><line transform="translate(0,83)" x2="400" y2="0" stroke="#ddd" stroke-width="1" opacity="1"></line><line transform="translate(0,67)" x2="400" y2="0" stroke="#ddd" stroke-width="1" opacity="1"></line><line transform="translate(0,50)" x2="400" y2="0" stroke="#ddd" stroke-width="1" opacity="1"></line><line transform="translate(0,33)" x2="400" y2="0" stroke="#ddd" stroke-width="1" opacity="1"></line><line transform="translate(0,17)" x2="400" y2="0" stroke="#ddd" stroke-width="1" opacity="1"></line><line transform="translate(0,0)" x2="400" y2="0" stroke="#ddd" stroke-width="1" opacity="1"></line></g><g class="mark-rule role-axis-tick" pointer-events="none"><line transform="translate(0,200)" x2="-5" y2="0" stroke="#888" stroke-width="1" opacity="1"></line><line transform="translate(0,183)" x2="-5" y2="0" stroke="#888" stroke-width="1" opacity="1"></line><line transform="translate(0,167)" x2="-5" y2="0" stroke="#888" stroke-width="1" opacity="1"></line><line transform="translate(0,150)" x2="-5" y2="0" stroke="#888" stroke-width="1" opacity="1"></line><line transform="translate(0,133)" x2="-5" y2="0" stroke="#888" stroke-width="1" opacity="1"></line><line transform="translate(0,117)" x2="-5" y2="0" stroke="#888" stroke-width="1" opacity="1"></line><line transform="translate(0,100)" x2="-5" y2="0" stroke="#888" stroke-width="1" opacity="1"></line><line transform="translate(0,83)" x2="-5" y2="0" stroke="#888" stroke-width="1" opacity="1"></line><line transform="translate(0,67)" x2="-5" y2="0" stroke="#888" stroke-width="1" opacity="1"></line><line transform="translate(0,50)" x2="-5" y2="0" stroke="#888" stroke-width="1" opacity="1"></line><line transform="translate(0,33)" x2="-5" y2="0" stroke="#888" stroke-width="1" opacity="1"></line><line transform="translate(0,17)" x2="-5" y2="0" stroke="#888" stroke-width="1" opacity="1"></line><line transform="translate(0,0)" x2="-5" y2="0" stroke="#888" stroke-width="1" opacity="1"></line></g><g class="mark-text role-axis-label" pointer-events="none"><text text-anchor="end" transform="translate(-7,203)" font-family="sans-serif" font-size="10px" fill="#000" opacity="1">-120</text><text text-anchor="end" transform="translate(-7,186.33333333333331)" font-family="sans-serif" font-size="10px" fill="#000" opacity="1">-110</text><text text-anchor="end" transform="translate(-7,169.66666666666669)" font-family="sans-serif" font-size="10px" fill="#000" opacity="1">-100</text><text text-anchor="end" transform="translate(-7,153)" font-family="sans-serif" font-size="10px" fill="#000" opacity="1">-90</text><text text-anchor="end" transform="translate(-7,136.33333333333334)" font-family="sans-serif" font-size="10px" fill="#000" opacity="1">-80</text><text text-anchor="end" transform="translate(-7,119.66666666666666)" font-family="sans-serif" font-size="10px" fill="#000" opacity="1">-70</text><text text-anchor="end" transform="translate(-7,103)" font-family="sans-serif" font-size="10px" fill="#000" opacity="1">-60</text><text text-anchor="end" transform="translate(-7,86.33333333333333)" font-family="sans-serif" font-size="10px" fill="#000" opacity="1">-50</text><text text-anchor="end" transform="translate(-7,69.66666666666667)" font-family="sans-serif" font-size="10px" fill="#000" opacity="1">-40</text><text text-anchor="end" transform="translate(-7,53)" font-family="sans-serif" font-size="10px" fill="#000" opacity="1">-30</text><text text-anchor="end" transform="translate(-7,36.33333333333333)" font-family="sans-serif" font-size="10px" fill="#000" opacity="1">-20</text><text text-anchor="end" transform="translate(-7,19.666666666666675)" font-family="sans-serif" font-size="10px" fill="#000" opacity="1">-10</text><text text-anchor="end" transform="translate(-7,3)" font-family="sans-serif" font-size="10px" fill="#000" opacity="1">0</text></g><g class="mark-rule role-axis-domain" pointer-events="none"><line transform="translate(0,200)" x2="0" y2="-200" stroke="#888" stroke-width="1" opacity="1"></line></g><g class="mark-text role-axis-title" pointer-events="none"><text text-anchor="middle" transform="translate(-31.03333282470703,100) rotate(-90) translate(0,-2)" font-family="sans-serif" font-size="11px" font-weight="bold" fill="#000" opacity="1">GHG/GDP variation (cB)</text></g></g><path class="foreground" aria-hidden="true" d="" pointer-events="none" display="none"></path></g></g><g class="mark-area role-mark" role="graphics-symbol" aria-roledescription="area mark container"><path d="M0,0L13.360102208432195,0L26.683701405365944,4.825494243369466L40.007300602299686,9.65098848673891L53.330899799233435,14.476482730108398L66.69100200766563,19.301976973477863L80.01460120459937,24.127471216847308L93.33820040153313,28.952965460216774L106.66179959846687,33.778459703586265L120.02190180689907,38.60395394695573L133.34550100383282,43.42944819032517L146.66910020076656,48.25494243369464L159.9926993977003,53.08043667706413L173.35280160613252,57.90593092043357L186.67640080306626,62.73142516380303L200,67.5569194071725L213.32359919693374,72.38241365054199L226.68370140536592,77.20790789391143L240.00730060229972,82.0334021372809L253.33089979923344,86.85889638065034L266.65449899616715,91.68439062401983L280.0146012045994,96.50988486738929L293.33820040153313,101.33537911075874L306.66179959846687,106.16087335412823L319.9853987954006,110.98636759749768L333.34550100383285,115.81186184086715L346.66910020076654,120.63735608423663L359.9926993977003,125.46285032760606L373.3162985946341,130.28834457097554L386.67640080306626,135.11383881434503L400,139.93933305771446L400,181.50682990698272L386.67640080306626,175.24797370329367L373.3162985946341,168.98911749960462L359.9926993977003,162.73026129591554L346.66910020076654,156.4714050922265L333.34550100383285,150.21254888853744L319.9853987954006,143.95369268484836L306.66179959846687,137.6948364811593L293.33820040153313,131.43598027747026L280.0146012045994,125.17712407378116L266.65449899616715,118.91826787009214L253.33089979923344,112.65941166640307L240.00730060229972,106.40055546271401L226.68370140536592,100.14169925902495L213.32359919693374,93.8828430553359L200,87.62398685164683L186.67640080306626,81.36513064795778L173.35280160613252,75.10627444426872L159.9926993977003,68.84741824057967L146.66910020076656,62.58856203689058L133.34550100383282,56.32970583320154L120.02190180689907,50.07084962951247L106.66179959846687,43.811993425823424L93.33820040153313,37.55313722213434L80.01460120459937,31.29428101844529L66.69100200766563,25.035424814756247L53.330899799233435,18.77656861106718L40.007300602299686,12.517712407378113L26.683701405365944,6.258856203689045L13.360102208432195,0L0,0Z" fill="#f58518" fill-opacity="0.7"></path></g><g class="mark-text role-mark" role="graphics-object" aria-roledescription="text mark container"><text text-anchor="start" transform="translate(403,142.93933305771446)" font-family="sans-serif" font-size="11px" fill="#4c78a8">No-growth baseline (-2.89 cB/year)</text></g><g class="mark-area role-mark" role="graphics-symbol" aria-roledescription="area mark container"><path d="M0,0L13.360102208432195,0L26.683701405365944,6.258856203689045L40.007300602299686,12.517712407378113L53.330899799233435,18.77656861106718L66.69100200766563,25.035424814756247L80.01460120459937,31.29428101844529L93.33820040153313,37.55313722213434L106.66179959846687,43.811993425823424L120.02190180689907,50.07084962951247L133.34550100383282,56.32970583320154L146.66910020076656,62.58856203689058L159.9926993977003,68.84741824057967L173.35280160613252,75.10627444426872L186.67640080306626,81.36513064795778L200,87.62398685164683L213.32359919693374,93.8828430553359L226.68370140536592,100.14169925902495L240.00730060229972,106.40055546271401L253.33089979923344,112.65941166640307L266.65449899616715,118.91826787009214L280.0146012045994,125.17712407378116L293.33820040153313,131.43598027747026L306.66179959846687,137.6948364811593L319.9853987954006,143.95369268484836L333.34550100383285,150.21254888853744L346.66910020076654,156.4714050922265L359.9926993977003,162.73026129591554L373.3162985946341,168.98911749960462L386.67640080306626,175.24797370329367L400,181.50682990698272L400,197.1233957920861L386.67640080306626,190.48357032326345L373.3162985946341,183.83322636307335L359.9926993977003,177.1723564208815L346.66910020076654,170.5010020195327L333.34550100383285,163.8191853136151L319.9853987954006,157.1267977275333L306.66179959846687,150.42375195756748L293.33820040153313,143.7101187810953L280.0146012045994,136.98601731975447L266.65449899616715,130.2514904769176L253.33089979923344,123.50648247844576L240.00730060229972,116.7508068267033L226.68370140536592,109.98420606869371L213.32359919693374,103.20634549181995L200,96.41691194720197L186.67640080306626,89.61567523813316L173.35280160613252,82.80244239170709L159.9926993977003,75.97695973049127L146.66910020076656,69.13896274303093L133.34550100383282,62.28817410289869L120.02190180689907,55.42436091073781L106.66179959846687,48.54722181611395L93.33820040153313,41.65631773705647L80.01460120459937,34.75114719445065L66.69100200766563,27.83126861069052L53.330899799233435,20.8965103371195L40.007300602299686,13.9466909832616L26.683701405365944,6.9813573860828315L13.360102208432195,0L0,0Z" fill="#e45756" fill-opacity="0.7"></path></g><g class="mark-text role-mark" role="graphics-object" aria-roledescription="text mark container"><text text-anchor="start" transform="translate(403,163.72308148234856)" font-family="sans-serif" font-size="11px" fill="#f58518">+2% GDP-per-capita annual growth</text></g><g class="mark-line role-mark" role="graphics-symbol" aria-roledescription="line mark container"><path d="M0,0L13.360102208432195,0L26.683701405365944,4.825494243369466L40.007300602299686,9.65098848673891L53.330899799233435,14.476482730108398L66.69100200766563,19.301976973477863L80.01460120459937,24.127471216847308L93.33820040153313,28.952965460216774L106.66179959846687,33.778459703586265L120.02190180689907,38.60395394695573L133.34550100383282,43.42944819032517L146.66910020076656,48.25494243369464L159.9926993977003,53.08043667706413L173.35280160613252,57.90593092043357L186.67640080306626,62.73142516380303L200,67.5569194071725L213.32359919693374,72.38241365054199L226.68370140536592,77.20790789391143L240.00730060229972,82.0334021372809L253.33089979923344,86.85889638065034L266.65449899616715,91.68439062401983L280.0146012045994,96.50988486738929L293.33820040153313,101.33537911075874L306.66179959846687,106.16087335412823L319.9853987954006,110.98636759749768L333.34550100383285,115.81186184086715L346.66910020076654,120.63735608423663L359.9926993977003,125.46285032760606L373.3162985946341,130.28834457097554L386.67640080306626,135.11383881434503L400,139.93933305771446" fill-opacity="0.7" stroke="#4c78a8" stroke-width="2"></path></g><g class="mark-text role-mark" role="graphics-object" aria-roledescription="text mark container"><text text-anchor="start" transform="translate(403,192.3151128495344)" font-family="sans-serif" font-size="11px" fill="#e45756">+ UN projected population growth</text></g><g class="mark-group role-title"><g transform="translate(267.45000076293945,-49)"><path class="background" aria-hidden="true" d="M0,0h0v0h0Z" pointer-events="none"></path><g><g class="mark-text role-title-text" role="graphics-symbol" aria-roledescription="title" aria-label="Title text 'Influence of economic and demographic growth on economic decarbonization requirements for a -2.89 cB/year pathway'" pointer-events="none"><text text-anchor="middle" transform="translate(0,10)" font-family="sans-serif" font-size="13px" font-weight="bold" fill="#000" opacity="1">Influence of economic and demographic growth on economic decarbonization requirements for a -2.89 cB/year pathway</text></g></g><path class="foreground" aria-hidden="true" d="" pointer-events="none" display="none"></path></g></g></g><path class="foreground" aria-hidden="true" d="" display="none"></path></g></g></g></svg>