<svg class="marks" width="556" height="194" viewBox="0 0 556 194" version="1.1" xmlns="http://www.w3.org/2000/svg" xmlns:xlink="http://www.w3.org/1999/xlink"><rect width="556" height="194" fill="white"></rect><g fill="none" stroke-miterlimit="10" transform="translate(107,24)"><g class="mark-group role-frame root" role="graphics-object" aria-roledescription="group mark container"><g transform="translate(0,0)"><path class="background" aria-hidden="true" d="M0.5,0.5h300v150h-300Z" stroke="#ddd"></path><g><g class="mark-group role-axis" role="graphics-symbol" aria-roledescription="axis" aria-label="X-axis titled 'Investment in reduction' for a linear scale with values from 0 to 10"><g transform="translate(0.5,150.5)"><path class="background" aria-hidden="true" d="M0,0h0v0h0Z" pointer-events="none"></path><g><g class="mark-rule role-axis-domain" pointer-events="none"><line transform="translate(0,0)" x2="300" y2="0" stroke="#888" stroke-width="1" opacity="1"></line></g><g class="mark-text role-axis-title" pointer-events="none"><text text-anchor="middle" transform="translate(150,13)" font-family="sans-serif" font-size="11px" font-weight="bold" fill="#000" opacity="1">Investment in reduction</text></g></g><path class="foreground" aria-hidden="true" d="" pointer-events="none" display="none"></path></g></g><g class="mark-group role-axis" role="graphics-symbol" aria-roledescription="axis" aria-label="Y-axis titled 'GHG intensity' for a linear scale with values from 0.0 to 1.0"><g transform="translate(0.5,0.5)"><path class="background" aria-hidden="true" d="M0,0h0v0h0Z" pointer-events="none"></path><g><g class="mark-rule role-axis-domain" pointer-events="none"><line transform="translate(0,150)" x2="0" y2="-150" stroke="#888" stroke-width="1" opacity="1"></line></g><g class="mark-text role-axis-title" pointer-events="none"><text text-anchor="middle" transform="translate(-4,75) rotate(-90) translate(0,-2)" font-family="sans-serif" font-size="11px" font-weight="bold" fill="#000" opacity="1">GHG intensity</text></g></g><path class="foreground" aria-hidden="true" d="" pointer-events="none" display="none"></path></g></g><g class="mark-group role-scope layer_0_pathgroup" role="graphics-object" aria-roledescription="group mark container"><g transform="translate(0,0)"><path class="background" aria-hidden="true" d="M0,0h300v150h-300Z"></path><g><g class="mark-line role-mark layer_0_marks" role="graphics-object" aria-roledescription="line mark container"><path aria-label="Investment in reduction: 0; GHG intensity: 1; ghg_intensity_curve: 0 True G(x)" role="graphics-symbol" aria-roledescription="line mark" d="M0,0C1,0.9898190045248887,2,1.9796380090497778,3,2.9411764705882417C4,3.9027149321267056,5,4.844332508039512,6,5.7692307692307825C7.000000000000001,6.6941290304220535,8.000000000000002,7.600252647422472,9.000000000000002,8.490566037735864C10.000000000000002,9.380879428049253,11,10.253478178006498,12,11.111111111111127C13,11.968744044215757,14,12.809644059644064,15,13.63636363636364C16,14.463083213083216,17,15.273980405559364,18,16.07142857142858C19,16.868876737297796,19.999999999999996,17.651348198081404,20.999999999999996,18.421052631578938C21.999999999999996,19.190757065076472,22.999999999999996,19.946271288976376,23.999999999999996,20.689655172413783C24.999999999999996,21.43303905585119,26,22.162965127605677,27,22.88135593220338C28,23.59974673680108,28.999999999999996,24.305362600722415,29.999999999999996,24.999999999999993C30.999999999999996,25.69463739927757,31.999999999999993,26.377137317116162,32.99999999999999,27.04918032786885C33.99999999999999,27.721223338621538,35,28.381724627097434,36,29.03225806451612C37,29.682791501934805,38,30.322340629800316,39,30.95238095238096C40,31.582421274961607,41.00000000000001,32.201999389499385,42.00000000000001,32.8125C43.00000000000001,33.42300061050061,44.00000000000001,34.023528554778565,45.00000000000001,34.61538461538463C46.00000000000001,35.20724067599069,47.00000000000001,35.789583550777586,48.00000000000001,36.36363636363637C49.00000000000001,36.93768917649515,50.000000000000014,37.50266049431985,51.000000000000014,38.05970149253732C52.000000000000014,38.61674249075479,53.000000000000014,39.165107964016244,54.000000000000014,39.70588235294119C55.000000000000014,40.24665674186613,56.000000000000014,40.779137742053365,57.000000000000014,41.304347826086975C58.000000000000014,41.829557910120585,59.000000000000014,42.346834630974264,60.000000000000014,42.85714285714287C61.000000000000014,43.36745108331147,62.000000000000014,43.87016543706685,63.000000000000014,44.3661971830986C64.00000000000001,44.862228929130346,65.00000000000001,45.350987201749334,66.00000000000001,45.83333333333336C67.00000000000001,46.31567946491738,68.00000000000001,46.79105475338353,69.00000000000001,47.26027397260275C70.00000000000001,47.729493191821966,71.00000000000003,48.19202764408245,72.00000000000003,48.64864864864867C73.00000000000003,49.105269653214876,74.00000000000003,49.555476529160764,75.00000000000003,50.00000000000002C76.00000000000003,50.44452347083928,77.00000000000004,50.88288904078379,78.00000000000004,51.31578947368422C79.00000000000004,51.74868990658465,80.00000000000004,52.175675201991005,81.00000000000004,52.59740259740261C82.00000000000004,53.01912999281422,83.00000000000004,53.43517242251421,84.00000000000004,53.84615384615387C85.00000000000004,54.25713526979352,86.00000000000004,54.6626501135995,87.00000000000004,55.06329113924052C88.00000000000004,55.46393216488154,89.00000000000004,55.85931395530553,90.00000000000004,56.250000000000014C91.00000000000004,56.6406860446945,92.00000000000004,57.026309846431815,93.00000000000004,57.407407407407426C94.00000000000004,57.78850496838304,95.00000000000006,58.164727564276994,96.00000000000006,58.536585365853675C97.00000000000006,58.908443167430356,98.00000000000006,59.27560415879549,99.00000000000006,59.6385542168675C100.00000000000006,60.001504274939506,101.00000000000006,60.35992710337149,102.00000000000006,60.71428571428573C103.00000000000006,61.06864432519997,104.00000000000006,61.41863722233081,105.00000000000006,61.764705882352956C106.00000000000006,62.110774542375104,107.00000000000006,62.452631413431476,108.00000000000006,62.79069767441863C109.00000000000006,63.128763935405786,110.00000000000007,63.46276518189111,111.00000000000007,63.793103448275886C112.00000000000007,64.12344171466066,113.00000000000007,64.44985500099799,114.00000000000007,64.7727272727273C115.00000000000007,65.0955995444566,116.00000000000007,65.41468051299515,117.00000000000007,65.73033707865171C118.00000000000007,66.04599364430828,119.00000000000006,66.3579865827057,120.00000000000006,66.66666666666669C121.00000000000006,66.97534675062766,122.00000000000004,67.28048521526783,123.00000000000004,67.58241758241759C124.00000000000004,67.88434994956735,125.00000000000003,68.18285734835526,126.00000000000003,68.47826086956523C127.00000000000003,68.77366439077521,128.00000000000003,69.06575452836384,129.00000000000003,69.35483870967744C130.00000000000003,69.64392289099104,131.00000000000003,69.92980047923515,132.00000000000003,70.2127659574468C133.00000000000003,70.49573143565846,134,70.77559257185517,135,71.05263157894737C136,71.32967058603957,137,71.60370320130222,138,71.875C139,72.14629679869778,139.99999999999997,72.41468107861701,140.99999999999997,72.68041237113401C141.99999999999997,72.94614366365101,142.99999999999997,73.20905244322033,143.99999999999997,73.46938775510203C144.99999999999997,73.72972306698374,145.99999999999997,73.98732220160791,146.99999999999997,74.24242424242424C147.99999999999997,74.49752628324056,148.99999999999994,74.74997499749973,149.99999999999994,74.99999999999999C150.99999999999994,75.25002500250024,151.99999999999994,75.49747621821004,152.99999999999994,75.74257425742573C153.99999999999994,75.98767229664142,154.99999999999994,76.23027294162883,155.99999999999994,76.47058823529412C156.99999999999994,76.7109035289594,157.99999999999991,76.94879482786392,158.99999999999991,77.18446601941746C159.99999999999991,77.42013721097099,160.99999999999991,77.65345495928017,161.99999999999991,77.88461538461536C162.99999999999991,78.11577580995053,163.9999999999999,78.34465063238646,164.9999999999999,78.57142857142856C165.9999999999999,78.79820651047065,166.9999999999999,79.02276410476021,167.9999999999999,79.24528301886791C168.9999999999999,79.4678019329756,169.9999999999999,79.68816329996014,170.9999999999999,79.90654205607474C171.9999999999999,80.12492081218934,172.99999999999986,80.3412024731582,173.99999999999986,80.55555555555553C174.99999999999986,80.76990863795285,175.99999999999986,80.98222284002097,176.99999999999986,81.19266055045868C177.99999999999986,81.4030982608964,178.99999999999983,81.61155317118619,179.99999999999983,81.8181818181818C180.99999999999983,82.02481046517742,181.99999999999983,82.22951035451031,182.99999999999983,82.43243243243239C183.99999999999983,82.63535451035447,184.99999999999983,82.83639992710786,185.99999999999983,83.03571428571426C186.99999999999983,83.23502864432065,187.9999999999998,83.43251657905823,188.9999999999998,83.62831858407075C189.9999999999998,83.82412058908328,190.9999999999998,84.01814463052587,191.9999999999998,84.21052631578944C192.9999999999998,84.402908001053,193.99999999999977,84.59355848391593,194.99999999999977,84.78260869565216C195.99999999999977,84.97165890738839,196.99999999999977,85.15902305257623,197.99999999999977,85.34482758620685C198.99999999999977,85.53063211983746,199.99999999999977,85.71479416745339,200.99999999999977,85.89743589743586C201.99999999999977,86.08007762741832,202.99999999999974,86.26111896301325,203.99999999999974,86.44067796610166C204.99999999999974,86.62023696919007,205.99999999999974,86.79823624364995,206.99999999999974,86.97478991596634C207.99999999999974,87.15134358828273,208.99999999999972,87.32637683172439,209.99999999999972,87.49999999999996C210.99999999999972,87.67362316827554,211.99999999999972,87.84576389829739,212.99999999999972,88.0165289256198C213.99999999999972,88.1872939529422,214.99999999999972,88.35661327755396,215.99999999999972,88.52459016393439C216.99999999999972,88.69256705031482,217.9999999999997,88.85913376584845,218.9999999999997,89.02439024390239C219.9999999999997,89.18964672195632,220.9999999999997,89.35352740624177,221.9999999999997,89.51612903225802C222.9999999999997,89.67873065827428,223.99999999999966,89.83998975934455,224.99999999999966,89.99999999999994C225.99999999999966,90.16001024065534,226.99999999999966,90.3187101612298,227.99999999999966,90.47619047619042C228.99999999999966,90.63367079115105,229.99999999999966,90.7898719691288,230.99999999999966,90.94488188976372C231.99999999999966,91.09989181039865,232.99999999999963,91.25365279558073,233.99999999999963,91.40624999999994C234.99999999999963,91.55884720441915,235.99999999999963,91.71022473166362,236.99999999999963,91.860465116279C237.99999999999963,92.01070550089439,238.9999999999996,92.15975455989654,239.9999999999996,92.30769230769226C240.9999999999996,92.45563005548799,241.9999999999996,92.60240395736572,242.9999999999996,92.74809160305337C243.9999999999996,92.89377924874101,244.99999999999963,93.0383296895952,245.99999999999963,93.18181818181813C246.99999999999963,93.32530667404106,247.9999999999996,93.46768379564918,248.9999999999996,93.60902255639093C249.9999999999996,93.75036131713267,250.9999999999996,93.89061376492634,251.9999999999996,94.0298507462686C252.9999999999996,94.16908772761084,253.99999999999957,94.30726270607741,254.99999999999957,94.4444444444444C255.99999999999957,94.58162618281139,256.99999999999955,94.71776950845215,257.99999999999955,94.85294117647052C258.99999999999955,94.98811284448891,259.99999999999955,95.1222689964592,260.99999999999955,95.25547445255468C261.99999999999955,95.38867990865016,262.99999999999955,95.52089207719823,263.99999999999955,95.65217391304343C264.99999999999955,95.78345574888863,265.99999999999955,95.9137658817045,266.99999999999955,96.04316546762584C267.99999999999955,96.17256505354716,268.9999999999995,96.30101390012607,269.9999999999995,96.42857142857139C270.9999999999995,96.55612895701672,271.9999999999995,96.68275611113484,272.9999999999995,96.80851063829782C273.9999999999995,96.9342651654608,274.9999999999995,97.05910910585763,275.9999999999995,97.18309859154924C276.9999999999995,97.30708807724085,277.9999999999995,97.4301862065946,278.9999999999995,97.55244755244749C279.9999999999995,97.67470889830038,280.9999999999995,97.79609758058027,281.9999999999995,97.9166666666666C282.9999999999995,98.03723575275293,283.99999999999943,98.15695034902635,284.99999999999943,98.27586206896547C285.99999999999943,98.39477378890459,286.99999999999943,98.5128486916731,287.99999999999943,98.6301369863013C288.99999999999943,98.74742528092949,289.99999999999943,98.86389394706414,290.99999999999943,98.97959183673464C291.99999999999943,99.09528972640514,292.99999999999943,99.2101847087465,293.99999999999943,99.32432432432427C294.99999999999943,99.43846393990204,295.99999999999943,99.55181691758867,296.99999999999943,99.66442953020128C297.99999999999943,99.77704214281388,298.9999999999994,99.88852107140691,299.9999999999994,99.99999999999994" stroke="#4c78a8" stroke-width="2"></path></g></g><path class="foreground" aria-hidden="true" d="" display="none"></path></g></g><g class="mark-group role-scope layer_1_pathgroup" role="graphics-object" aria-roledescription="group mark container"><g transform="translate(0,0)"><path class="background" aria-hidden="true" d="M0,0h300v150h-300Z"></path><g><g class="mark-line role-mark layer_1_marks" role="graphics-object" aria-roledescription="line mark container"><path aria-label="Investment in reduction: 0; GHG intensity: 1; ghg_intensity_curve: 1 cB-based approximation" role="graphics-symbol" aria-roledescription="line mark" d="M0,0C1,0.9949674913973958,2,1.9899349827947916,3,2.9701990039867123C4,3.950463025178633,5,4.92073063408886,6,5.881584127151523C7.000000000000001,6.842437620214187,8.000000000000002,7.793492643220505,9.000000000000002,8.735319962362691C10.000000000000002,9.677147281504876,11,10.609370153297407,12,11.532548042004636C13,12.455725930711868,14,13.369489552869116,15,14.274387294606072C16,15.179285036343028,17,16.074954926497536,18,16.96193449242638C19,17.84891405835522,19.999999999999996,18.72684849640547,20.999999999999996,19.596264690179122C21.999999999999996,20.465680883952775,22.999999999999996,21.326231055379953,23.999999999999996,22.178431655068298C24.999999999999996,23.030632254756643,26,23.87414239110346,27,24.7094682883092C28,25.544794185514938,28.999999999999996,26.37160170208289,29.999999999999996,27.190387038302728C30.999999999999996,28.009172374522564,31.999999999999993,28.81960800534252,32.99999999999999,29.622180305628227C33.99999999999999,30.424752605913937,35,31.219140536044172,36,32.00582084001698C37,32.79250114398979,38,33.571159139194364,39,34.34226212946506C40,35.11336511973576,41.00000000000001,35.87660465359497,42.00000000000001,36.63243878164118C43.00000000000001,37.38827290968739,44.00000000000001,38.13639928819145,45.00000000000001,38.87726689774232C46.00000000000001,39.618134507293185,47.00000000000001,40.351446990968675,48.00000000000001,41.07764443894638C49.00000000000001,41.80384188692408,50.000000000000014,42.52263381054206,51.000000000000014,43.234451585608554C52.000000000000014,43.946269360675046,53.000000000000014,44.650828250589,54.000000000000014,45.34855108934535C55.000000000000014,46.0462739281017,56.000000000000014,46.73688161726183,57.000000000000014,47.420788618146624C58.000000000000014,48.10469561903142,59.000000000000014,48.78162835972164,60.000000000000014,49.45199309465412C61.000000000000014,50.122357829586605,62.000000000000014,50.785886403929055,63.000000000000014,51.442977027741506C64.00000000000001,52.10006765155396,65.00000000000001,52.750457479825535,66.00000000000001,53.394536837528804C67.00000000000001,54.03861619523207,68.00000000000001,54.67612744203611,69.00000000000001,55.30745317396112C70.00000000000001,55.93877890588614,71.00000000000003,56.56366658422158,72.00000000000003,57.18249122907889C73.00000000000003,57.801315873936204,74.00000000000003,58.41382994720634,75.00000000000003,59.020401043105004C76.00000000000003,59.62697213900367,77.00000000000004,60.227357621004785,78.00000000000004,60.82191780447088C79.00000000000004,61.41647798793697,80.00000000000004,62.00497504086709,81.00000000000004,62.58776214390157C82.00000000000004,63.170549246936055,83.00000000000004,63.7473932774631,84.00000000000004,64.31864042267779C85.00000000000004,64.88988756789249,86.00000000000004,65.45530932132002,87.00000000000004,66.01524501518973C88.00000000000004,66.57518070905945,89.00000000000004,67.12940636162787,90.00000000000004,67.67825458589606C91.00000000000004,68.22710281016424,92.00000000000004,68.77035405952441,93.00000000000004,69.30833436079885C94.00000000000004,69.8463146620733,95.00000000000006,70.37880881596837,96.00000000000006,70.90613639354275C97.00000000000006,71.43346397111713,98.00000000000006,71.95541403430866,99.00000000000006,72.47229982624513C100.00000000000006,72.98918561818161,101.00000000000006,73.50080037765434,102.00000000000006,74.00745114516158C103.00000000000006,74.51410191266882,104.00000000000006,75.01558602114815,105.00000000000006,75.51220443128861C106.00000000000006,76.00882284142907,107.00000000000006,76.5003768992449,108.00000000000006,76.98716160600428C109.00000000000006,77.47394631276366,110.00000000000007,77.9557669480933,111.00000000000007,78.43291267184486C112.00000000000007,78.91005839559642,113.00000000000007,79.38233834311838,114.00000000000007,79.85003594851365C115.00000000000007,80.31773355390892,116.00000000000007,80.78066173189931,117.00000000000007,81.23909830421651C118.00000000000007,81.69753487653371,119.00000000000006,82.1512964624362,120.00000000000006,82.6006553824168C121.00000000000006,83.0500143023974,122.00000000000004,83.49479080689657,123.00000000000004,83.93525182410012C124.00000000000004,84.37571284130367,125.00000000000003,84.81168218093181,126.00000000000003,85.24342148563807C127.00000000000003,85.67516079034434,128.00000000000003,86.10249735865024,129.00000000000003,86.5256876523377C130.00000000000003,86.94887794602515,131.00000000000003,87.36775268333406,132.00000000000003,87.7825632477628C133.00000000000003,88.19737381219153,134,88.60795427398345,135,89.01455103891013C136,89.4211478038368,137,89.82359822777092,138,90.22214383732288C139,90.62068944687482,139.99999999999997,91.0151708184868,140.99999999999997,91.40582469622184C141.99999999999997,91.79647857395689,142.99999999999997,92.18314869105515,143.99999999999997,92.56606710373319C144.99999999999997,92.94898551641123,145.99999999999997,93.32799905219831,146.99999999999997,93.70333517229005C147.99999999999997,94.0786712923818,148.99999999999994,94.45017985732561,149.99999999999994,94.81808382428363C150.99999999999994,95.18598779124166,151.99999999999994,95.55013999372167,152.99999999999994,95.91075897403823C153.99999999999994,96.27137795435479,154.99999999999994,96.62831946010743,155.99999999999994,96.98179770618296C156.99999999999994,97.33527595225848,157.99999999999991,97.68514954264533,158.99999999999991,98.03162845049135C159.99999999999991,98.37810735833737,160.99999999999991,98.72105298745964,161.99999999999991,99.0606711532591C162.99999999999991,99.40028931905854,163.9999999999999,99.73644416974055,164.9999999999999,100.06933744528804C165.9999999999999,100.40223072083553,166.9999999999999,100.73172925949964,167.9999999999999,101.05803080654402C168.9999999999999,101.3843323535884,169.9999999999999,101.7073063840435,170.9999999999999,102.02714672755437C171.9999999999999,102.34698707106523,172.99999999999986,102.66356578722986,173.99999999999986,102.97707286760917C174.99999999999986,103.29057994798849,175.99999999999986,103.60088998557019,176.99999999999986,103.90818920983027C177.99999999999986,104.21548843409035,178.99999999999983,104.51965392124171,179.99999999999983,104.82086821316963C180.99999999999983,105.12208250509757,181.99999999999983,105.42022511206905,182.99999999999983,105.71547496139783C183.99999999999983,106.01072481072661,184.99999999999983,106.30296379853627,185.99999999999983,106.59236730914236C186.99999999999983,106.88177081974845,187.9999999999998,107.168223087888,188.9999999999998,107.4518960250344C189.9999999999998,107.73556896218082,190.9999999999998,108.0163490953769,191.9999999999998,108.29440493202084C192.9999999999998,108.57246076866478,193.99999999999977,108.84768108271446,194.99999999999977,109.12023104489805C195.99999999999977,109.39278100708164,196.99999999999977,109.66255159378022,197.99999999999977,109.92970470512239C198.99999999999977,110.19685781646456,199.99999999999977,110.4612865876437,200.99999999999977,110.72314971295106C201.99999999999977,110.98501283825841,202.99999999999974,111.24420556895232,203.99999999999974,111.50088345696656C204.99999999999974,111.7575613449808,205.99999999999974,112.01162171573772,206.99999999999974,112.26321704103646C207.99999999999974,112.51481236633519,208.99999999999972,112.76384200469096,209.99999999999972,113.01045540875896C210.99999999999972,113.25706881282696,211.99999999999972,113.50116733395735,212.99999999999972,113.74289746544447C213.99999999999972,113.98462759693159,214.99999999999972,114.22389264349975,215.99999999999972,114.46083619768169C216.99999999999972,114.69777975186362,217.9999999999997,114.93230703307839,218.9999999999997,115.1645587905361C219.9999999999997,115.39681054799382,220.9999999999997,115.6266938778948,221.9999999999997,115.85434674242802C222.9999999999997,116.08199960696125,223.99999999999966,116.30733094194551,224.99999999999966,116.53047597773546C225.99999999999966,116.75362101352542,226.99999999999966,116.97449048913143,227.99999999999966,117.19321695716772C228.99999999999966,117.41194342520402,229.99999999999966,117.628439392167,230.99999999999966,117.84283478595324C231.99999999999966,118.05723017973949,232.99999999999963,118.26943923933287,233.99999999999963,118.47958931988522C234.99999999999963,118.68973940043759,235.99999999999963,118.89774643911467,236.99999999999963,119.1037352692674C237.99999999999963,119.30972409942014,238.9999999999996,119.51361232276989,239.9999999999996,119.71552230080161C240.9999999999996,119.91743227883333,241.9999999999996,120.11728324486364,242.9999999999996,120.31519513745774C243.9999999999996,120.51310703005183,244.99999999999963,120.70900068181378,245.99999999999963,120.90299365636614C246.99999999999963,121.0969866309185,247.9999999999996,121.28900132848482,248.9999999999996,121.47915298477186C249.9999999999996,121.6693046410589,250.9999999999996,121.85751719286877,251.9999999999996,122.04390359408842C252.9999999999996,122.23028999530807,253.99999999999957,122.41477568889181,254.99999999999957,122.59747139208973C255.99999999999957,122.78016709528765,256.99999999999955,122.9609997273825,257.99999999999955,123.14007781327594C258.99999999999955,123.31915589916939,259.99999999999955,123.49640780523933,260.99999999999955,123.6719399074504C261.99999999999955,123.84747200966146,262.99999999999955,124.02121409283231,263.99999999999955,124.19327042654234C264.99999999999955,124.36532676025237,265.99999999999955,124.53562851967399,266.99999999999955,124.7042779097106C267.99999999999955,124.8729272997472,268.9999999999995,125.03985685839407,269.9999999999995,125.20516676676195C270.9999999999995,125.37047667512982,271.9999999999995,125.53410080705117,272.9999999999995,125.69613735991781C273.9999999999995,125.85817391278445,274.9999999999995,126.01855806981473,275.9999999999995,126.17738608396182C276.9999999999995,126.33621409810891,277.9999999999995,126.4934224360494,278.9999999999995,126.64910544480033C279.9999999999995,126.80478845355125,280.9999999999995,126.95888385783329,281.9999999999995,127.11148413646734C282.9999999999995,127.2640844151014,283.99999999999943,127.41512852594133,284.99999999999943,127.56470711660467C285.99999999999943,127.714285707268,286.99999999999943,127.8623389443241,287.99999999999943,128.0089556804474C288.99999999999943,128.1555724165707,289.99999999999943,128.30069400311186,290.99999999999943,128.4444075333445C291.99999999999943,128.58812106357715,292.99999999999943,128.73036905017295,293.99999999999943,128.8712368618432C294.99999999999943,129.01210467351342,295.99999999999943,129.15153596125518,296.99999999999943,129.289614403366C297.99999999999943,129.4276928454768,298.9999999999994,129.5637001799924,299.9999999999994,129.69970751450802" stroke="#f58518" stroke-width="1" stroke-dasharray="4,1"></path></g></g><path class="foreground" aria-hidden="true" d="" display="none"></path></g><g transform="translate(0,0)"><path class="background" aria-hidden="true" d="M0,0h300v150h-300Z"></path><g><g class="mark-line role-mark layer_1_marks" role="graphics-object" aria-roledescription="line mark container"><path aria-label="Investment in reduction: 0; GHG intensity: 1; ghg_intensity_curve: 2 %-based approximation" role="graphics-symbol" aria-roledescription="line mark" d="M0,0C1,1.0000000000000007,2,2.0000000000000018,3,3.0000000000000027C4,4.0000000000000036,5,5.000000000000005,6,6.000000000000005C7.000000000000001,7.000000000000006,8.000000000000002,8.000000000000005,9.000000000000002,9.000000000000007C10.000000000000002,10.000000000000007,11,11.000000000000012,12,12.00000000000001C13,13.000000000000009,14,13.999999999999998,15,14.999999999999996C16,15.999999999999995,17,17,18,18C19,19,19.999999999999996,20.000000000000004,20.999999999999996,21.000000000000004C21.999999999999996,22.000000000000004,22.999999999999996,23.000000000000007,23.999999999999996,24.000000000000004C24.999999999999996,25,26,25.99999999999999,27,26.99999999999999C28,27.999999999999986,28.999999999999996,28.999999999999993,29.999999999999996,29.999999999999993C30.999999999999996,30.999999999999993,31.999999999999993,31.999999999999993,32.99999999999999,32.99999999999999C33.99999999999999,33.99999999999999,35,35,36,36C37,37,38,38,39,39C40,40,41.00000000000001,41.00000000000001,42.00000000000001,42.00000000000001C43.00000000000001,43.00000000000001,44.00000000000001,44.00000000000001,45.00000000000001,45.00000000000001C46.00000000000001,46.00000000000001,47.00000000000001,47.00000000000001,48.00000000000001,48.00000000000001C49.00000000000001,49.00000000000001,50.000000000000014,50.000000000000014,51.000000000000014,51.000000000000014C52.000000000000014,52.000000000000014,53.000000000000014,53.000000000000014,54.000000000000014,54.000000000000014C55.000000000000014,55.000000000000014,56.000000000000014,56.000000000000014,57.000000000000014,57.000000000000014C58.000000000000014,58.000000000000014,59.000000000000014,59.00000000000002,60.000000000000014,60.00000000000002C61.000000000000014,61.00000000000002,62.000000000000014,62.00000000000002,63.000000000000014,63.00000000000002C64.00000000000001,64.00000000000003,65.00000000000001,65.00000000000003,66.00000000000001,66.00000000000003C67.00000000000001,67.00000000000003,68.00000000000001,68.00000000000003,69.00000000000001,69.00000000000003C70.00000000000001,70.00000000000003,71.00000000000003,71.00000000000003,72.00000000000003,72.00000000000003C73.00000000000003,73.00000000000003,74.00000000000003,74.00000000000003,75.00000000000003,75.00000000000003C76.00000000000003,76.00000000000003,77.00000000000004,77.00000000000004,78.00000000000004,78.00000000000004C79.00000000000004,79.00000000000004,80.00000000000004,80.00000000000004,81.00000000000004,81.00000000000004C82.00000000000004,82.00000000000004,83.00000000000004,83.00000000000004,84.00000000000004,84.00000000000004C85.00000000000004,85.00000000000004,86.00000000000004,86.00000000000004,87.00000000000004,87.00000000000004C88.00000000000004,88.00000000000004,89.00000000000004,89.00000000000004,90.00000000000004,90.00000000000004C91.00000000000004,91.00000000000004,92.00000000000004,92.00000000000004,93.00000000000004,93.00000000000004C94.00000000000004,94.00000000000004,95.00000000000006,95.00000000000006,96.00000000000006,96.00000000000006C97.00000000000006,97.00000000000006,98.00000000000006,98.00000000000006,99.00000000000006,99.00000000000006C100.00000000000006,100.00000000000006,101.00000000000006,101.00000000000006,102.00000000000006,102.00000000000006C103.00000000000006,103.00000000000006,104.00000000000006,104.00000000000006,105.00000000000006,105.00000000000006C106.00000000000006,106.00000000000006,107.00000000000006,107.00000000000006,108.00000000000006,108.00000000000006C109.00000000000006,109.00000000000006,110.00000000000007,110.00000000000007,111.00000000000007,111.00000000000007C112.00000000000007,112.00000000000007,113.00000000000007,113.00000000000007,114.00000000000007,114.00000000000007C115.00000000000007,115.00000000000007,116.00000000000007,116.00000000000007,117.00000000000007,117.00000000000007C118.00000000000007,118.00000000000007,119.00000000000006,119.00000000000006,120.00000000000006,120.00000000000006C121.00000000000006,121.00000000000006,122.00000000000004,122.00000000000004,123.00000000000004,123.00000000000004C124.00000000000004,124.00000000000004,125.00000000000003,125.00000000000004,126.00000000000003,126.00000000000004C127.00000000000003,127.00000000000004,128.00000000000003,128.00000000000003,129.00000000000003,129.00000000000003C130.00000000000003,130.00000000000003,131.00000000000003,131.00000000000003,132.00000000000003,132.00000000000003C133.00000000000003,133.00000000000003,134,134,135,135C136,136,137,137,138,138C139,139,139.99999999999997,140,140.99999999999997,141C141.99999999999997,142,142.99999999999997,142.99999999999997,143.99999999999997,143.99999999999997C144.99999999999997,144.99999999999997,145.99999999999997,145.99999999999997,146.99999999999997,146.99999999999997C147.99999999999997,147.99999999999997,148.99999999999994,148.99999999999994,149.99999999999994,149.99999999999994" stroke="#e45756" stroke-width="1" stroke-dasharray="4,1"></path></g></g><path class="foreground" aria-hidden="true" d="" display="none"></path></g></g><g class="mark-group role-legend" role="graphics-symbol" aria-roledescription="legend" aria-label="Symbol legend for stroke color with 3 values: 0 True G(x), 1 cB-based approximation, 2 %-based approximation"><g transform="translate(320,0)"><path class="background" aria-hidden="true" d="M0,0h124v37h-124Z" pointer-events="none"></path><g><g class="mark-group role-legend-entry"><g transform="translate(0,0)"><path class="background" aria-hidden="true" d="M0,0h0v0h0Z" pointer-events="none"></path><g><g class="mark-group role-scope" role="graphics-object" aria-roledescription="group mark container"><g transform="translate(0,0)"><path class="background" aria-hidden="true" d="M0,0h123.8369140625v11h-123.8369140625Z" pointer-events="none" opacity="1"></path><g><g class="mark-symbol role-legend-symbol" pointer-events="none"><path transform="translate(6,6)" d="M-5,0L5,0" stroke="#4c78a8" stroke-width="1.5" opacity="1"></path></g><g class="mark-text role-legend-label" pointer-events="none"><text text-anchor="start" transform="translate(16,9)" font-family="sans-serif" font-size="10px" fill="#000" opacity="1">True G(x)</text></g></g><path class="foreground" aria-hidden="true" d="" pointer-events="none" display="none"></path></g><g transform="translate(0,13)"><path class="background" aria-hidden="true" d="M0,0h123.8369140625v11h-123.8369140625Z" pointer-events="none" opacity="1"></path><g><g class="mark-symbol role-legend-symbol" pointer-events="none"><path transform="translate(6,6)" d="M-5,0L5,0" stroke="#f58518" stroke-width="1.5" opacity="1"></path></g><g class="mark-text role-legend-label" pointer-events="none"><text text-anchor="start" transform="translate(16,9)" font-family="sans-serif" font-size="10px" fill="#000" opacity="1">cB-based approximation</text></g></g><path class="foreground" aria-hidden="true" d="" pointer-events="none" display="none"></path></g><g transform="translate(0,26)"><path class="background" aria-hidden="true" d="M0,0h123.8369140625v11h-123.8369140625Z" pointer-events="none" opacity="1"></path><g><g class="mark-symbol role-legend-symbol" pointer-events="none"><path transform="translate(6,6)" d="M-5,0L5,0" stroke="#e45756" stroke-width="1.5" opacity="1"></path></g><g class="mark-text role-legend-label" pointer-events="none"><text text-anchor="start" transform="translate(16,9)" font-family="sans-serif" font-size="10px" fill="#000" opacity="1">%-based approximation</text></g></g><path class="foreground" aria-hidden="true" d="" pointer-events="none" display="none"></path></g></g></g><path class="foreground" aria-hidden="true" d="" pointer-events="none" display="none"></path></g></g></g><path class="foreground" aria-hidden="true" d="" pointer-events="none" display="none"></path></g></g><g class="mark-group role-title"><g transform="translate(150,-19)"><path class="background" aria-hidden="true" d="M0,0h0v0h0Z" pointer-events="none"></path><g><g class="mark-text role-title-text" role="graphics-symbol" aria-roledescription="title" aria-label="Title text 'Sketch: approximations of ROI in GHG-intensity reduction by local extrapolations'" pointer-events="none"><text text-anchor="middle" transform="translate(0,10)" font-family="sans-serif" font-size="13px" font-weight="bold" fill="#000" opacity="1">Sketch: approximations of ROI in GHG-intensity reduction by local extrapolations</text></g></g><path class="foreground" aria-hidden="true" d="" pointer-events="none" display="none"></path></g></g></g><path class="foreground" aria-hidden="true" d="" display="none"></path></g></g></g></svg>